G75*
G70*
%OFA0B0*%
%FSLAX24Y24*%
%IPPOS*%
%LPD*%
%AMOC8*
5,1,8,0,0,1.08239X$1,22.5*
%
%ADD10R,0.0197X0.0591*%
%ADD11R,0.0591X0.0197*%
%ADD12C,0.0594*%
%ADD13R,0.0512X0.0591*%
%ADD14C,0.0669*%
%ADD15OC8,0.0669*%
%ADD16R,0.0472X0.0472*%
%ADD17C,0.0476*%
%ADD18C,0.0650*%
%ADD19R,0.0591X0.0512*%
%ADD20C,0.0594*%
%ADD21C,0.1000*%
%ADD22OC8,0.0554*%
%ADD23C,0.0120*%
%ADD24C,0.0436*%
%ADD25C,0.0400*%
%ADD26C,0.0500*%
%ADD27C,0.0660*%
D10*
X015600Y017721D03*
X015915Y017721D03*
X016230Y017721D03*
X016545Y017721D03*
X016860Y017721D03*
X017175Y017721D03*
X017490Y017721D03*
X017805Y017721D03*
X018120Y017721D03*
X018435Y017721D03*
X018750Y017721D03*
X018750Y022288D03*
X018435Y022288D03*
X018120Y022288D03*
X017805Y022288D03*
X017490Y022288D03*
X017175Y022288D03*
X016860Y022288D03*
X016545Y022288D03*
X016230Y022288D03*
X015915Y022288D03*
X015600Y022288D03*
D11*
X014892Y021579D03*
X014892Y021264D03*
X014892Y020949D03*
X014892Y020634D03*
X014892Y020319D03*
X014892Y020004D03*
X014892Y019689D03*
X014892Y019374D03*
X014892Y019059D03*
X014892Y018744D03*
X014892Y018429D03*
X019459Y018429D03*
X019459Y018744D03*
X019459Y019059D03*
X019459Y019374D03*
X019459Y019689D03*
X019459Y020004D03*
X019459Y020319D03*
X019459Y020634D03*
X019459Y020949D03*
X019459Y021264D03*
X019459Y021579D03*
D12*
X018233Y015396D03*
X016333Y015396D03*
X033766Y006341D03*
X033766Y002341D03*
D13*
X014088Y014630D03*
X013340Y014630D03*
X011857Y024679D03*
X011109Y024679D03*
X009855Y024657D03*
X009107Y024657D03*
X008984Y028179D03*
X009732Y028179D03*
X010359Y028179D03*
X011107Y028179D03*
X015516Y026750D03*
X016264Y026750D03*
D14*
X011358Y026554D03*
D15*
X010358Y026554D03*
D16*
X009896Y023179D03*
X009070Y023179D03*
X011070Y023179D03*
X011896Y023179D03*
X013320Y015386D03*
X014147Y015386D03*
D17*
X014334Y027705D02*
X014334Y028181D01*
X015334Y028181D02*
X015334Y027705D01*
X016334Y027705D02*
X016334Y028181D01*
X017334Y028181D02*
X017334Y027705D01*
X017334Y030705D02*
X017334Y031181D01*
X016334Y031181D02*
X016334Y030705D01*
X015334Y030705D02*
X015334Y031181D01*
X014334Y031181D02*
X014334Y030705D01*
X034618Y006331D02*
X035094Y006331D01*
X035094Y005331D02*
X034618Y005331D01*
X034618Y004331D02*
X035094Y004331D01*
X035094Y003331D02*
X034618Y003331D01*
X037618Y003331D02*
X038094Y003331D01*
X038094Y004331D02*
X037618Y004331D01*
X037618Y005331D02*
X038094Y005331D01*
X038094Y006331D02*
X037618Y006331D01*
D18*
X037805Y014144D02*
X037805Y014793D01*
X038805Y014793D02*
X038805Y014144D01*
X039805Y014144D02*
X039805Y014793D01*
X042805Y014793D02*
X042805Y014144D01*
X043805Y014144D02*
X043805Y014793D01*
X044805Y014793D02*
X044805Y014144D01*
X047805Y014144D02*
X047805Y014793D01*
X048805Y014793D02*
X048805Y014144D01*
X049805Y014144D02*
X049805Y014793D01*
X052805Y014793D02*
X052805Y014144D01*
X053805Y014144D02*
X053805Y014793D01*
X054805Y014793D02*
X054805Y014144D01*
X057805Y014144D02*
X057805Y014793D01*
X058805Y014793D02*
X058805Y014144D01*
X059805Y014144D02*
X059805Y014793D01*
X059805Y017144D02*
X059805Y017793D01*
X058805Y017793D02*
X058805Y017144D01*
X057805Y017144D02*
X057805Y017793D01*
X054805Y017793D02*
X054805Y017144D01*
X053805Y017144D02*
X053805Y017793D01*
X052805Y017793D02*
X052805Y017144D01*
X049805Y017144D02*
X049805Y017793D01*
X048805Y017793D02*
X048805Y017144D01*
X047805Y017144D02*
X047805Y017793D01*
X044805Y017793D02*
X044805Y017144D01*
X043805Y017144D02*
X043805Y017793D01*
X042805Y017793D02*
X042805Y017144D01*
X039805Y017144D02*
X039805Y017793D01*
X038805Y017793D02*
X038805Y017144D01*
X037805Y017144D02*
X037805Y017793D01*
X034805Y017793D02*
X034805Y017144D01*
X033805Y017144D02*
X033805Y017793D01*
X032805Y017793D02*
X032805Y017144D01*
X029805Y017144D02*
X029805Y017793D01*
X028805Y017793D02*
X028805Y017144D01*
X027805Y017144D02*
X027805Y017793D01*
X024805Y017793D02*
X024805Y017144D01*
X023805Y017144D02*
X023805Y017793D01*
X022805Y017793D02*
X022805Y017144D01*
X022805Y014793D02*
X022805Y014144D01*
X023805Y014144D02*
X023805Y014793D01*
X024805Y014793D02*
X024805Y014144D01*
X027805Y014144D02*
X027805Y014793D01*
X028805Y014793D02*
X028805Y014144D01*
X029805Y014144D02*
X029805Y014793D01*
X032805Y014793D02*
X032805Y014144D01*
X033805Y014144D02*
X033805Y014793D01*
X034805Y014793D02*
X034805Y014144D01*
X034920Y023022D02*
X034920Y023672D01*
X035920Y023672D02*
X035920Y023022D01*
X036920Y023022D02*
X036920Y023672D01*
X039920Y023672D02*
X039920Y023022D01*
X040920Y023022D02*
X040920Y023672D01*
X041920Y023672D02*
X041920Y023022D01*
X044920Y023022D02*
X044920Y023672D01*
X045920Y023672D02*
X045920Y023022D01*
X046920Y023022D02*
X046920Y023672D01*
X049920Y023672D02*
X049920Y023022D01*
X050920Y023022D02*
X050920Y023672D01*
X051920Y023672D02*
X051920Y023022D01*
X054920Y023022D02*
X054920Y023672D01*
X055920Y023672D02*
X055920Y023022D01*
X056920Y023022D02*
X056920Y023672D01*
X059920Y023672D02*
X059920Y023022D01*
X060920Y023022D02*
X060920Y023672D01*
X061920Y023672D02*
X061920Y023022D01*
X061920Y026022D02*
X061920Y026672D01*
X060920Y026672D02*
X060920Y026022D01*
X059920Y026022D02*
X059920Y026672D01*
X056920Y026672D02*
X056920Y026022D01*
X055920Y026022D02*
X055920Y026672D01*
X054920Y026672D02*
X054920Y026022D01*
X051920Y026022D02*
X051920Y026672D01*
X050920Y026672D02*
X050920Y026022D01*
X049920Y026022D02*
X049920Y026672D01*
X046920Y026672D02*
X046920Y026022D01*
X045920Y026022D02*
X045920Y026672D01*
X044920Y026672D02*
X044920Y026022D01*
X041920Y026022D02*
X041920Y026672D01*
X040920Y026672D02*
X040920Y026022D01*
X039920Y026022D02*
X039920Y026672D01*
X036920Y026672D02*
X036920Y026022D01*
X035920Y026022D02*
X035920Y026672D01*
X034920Y026672D02*
X034920Y026022D01*
X031920Y026022D02*
X031920Y026672D01*
X030920Y026672D02*
X030920Y026022D01*
X029920Y026022D02*
X029920Y026672D01*
X026920Y026672D02*
X026920Y026022D01*
X025920Y026022D02*
X025920Y026672D01*
X024920Y026672D02*
X024920Y026022D01*
X024920Y023672D02*
X024920Y023022D01*
X025920Y023022D02*
X025920Y023672D01*
X026920Y023672D02*
X026920Y023022D01*
X029920Y023022D02*
X029920Y023672D01*
X030920Y023672D02*
X030920Y023022D01*
X031920Y023022D02*
X031920Y023672D01*
X010979Y021489D02*
X010330Y021489D01*
X010330Y020489D02*
X010979Y020489D01*
X010979Y019489D02*
X010330Y019489D01*
X010330Y018489D02*
X010979Y018489D01*
X010999Y017092D02*
X010349Y017092D01*
X010349Y016092D02*
X010999Y016092D01*
X010999Y015092D02*
X010349Y015092D01*
X010349Y014092D02*
X010999Y014092D01*
X010999Y013092D02*
X010349Y013092D01*
D19*
X026319Y014106D03*
X026319Y014854D03*
X031198Y014854D03*
X031198Y014106D03*
X036198Y014106D03*
X036198Y014854D03*
X041198Y014854D03*
X041198Y014106D03*
X046198Y014106D03*
X046198Y014854D03*
X051198Y014854D03*
X051198Y014106D03*
X056198Y014106D03*
X056198Y014854D03*
X061218Y014854D03*
X061218Y014106D03*
X058420Y025973D03*
X058420Y026721D03*
X053527Y026721D03*
X053527Y025973D03*
X048527Y025973D03*
X048527Y026721D03*
X043527Y026721D03*
X043527Y025973D03*
X038429Y025973D03*
X038429Y026721D03*
X033420Y026721D03*
X033420Y025973D03*
X028420Y025973D03*
X028420Y026721D03*
X023420Y026721D03*
X023420Y025973D03*
D20*
X019631Y029693D02*
X019037Y029693D01*
X019037Y030693D02*
X019631Y030693D01*
X023920Y031050D02*
X023920Y031644D01*
X024920Y031644D02*
X024920Y031050D01*
X025920Y031050D02*
X025920Y031644D01*
X028920Y031644D02*
X028920Y031050D01*
X029920Y031050D02*
X029920Y031644D01*
X030920Y031644D02*
X030920Y031050D01*
X033920Y031050D02*
X033920Y031644D01*
X034920Y031644D02*
X034920Y031050D01*
X035920Y031050D02*
X035920Y031644D01*
X038920Y031644D02*
X038920Y031050D01*
X039920Y031050D02*
X039920Y031644D01*
X040920Y031644D02*
X040920Y031050D01*
X043920Y031050D02*
X043920Y031644D01*
X044920Y031644D02*
X044920Y031050D01*
X045920Y031050D02*
X045920Y031644D01*
X048920Y031644D02*
X048920Y031050D01*
X049920Y031050D02*
X049920Y031644D01*
X050920Y031644D02*
X050920Y031050D01*
X053920Y031050D02*
X053920Y031644D01*
X054920Y031644D02*
X054920Y031050D01*
X055920Y031050D02*
X055920Y031644D01*
X058920Y031644D02*
X058920Y031050D01*
X059920Y031050D02*
X059920Y031644D01*
X060920Y031644D02*
X060920Y031050D01*
X060805Y009765D02*
X060805Y009172D01*
X059805Y009172D02*
X059805Y009765D01*
X058805Y009765D02*
X058805Y009172D01*
X055805Y009172D02*
X055805Y009765D01*
X054805Y009765D02*
X054805Y009172D01*
X053805Y009172D02*
X053805Y009765D01*
X050805Y009765D02*
X050805Y009172D01*
X049805Y009172D02*
X049805Y009765D01*
X048805Y009765D02*
X048805Y009172D01*
X045805Y009172D02*
X045805Y009765D01*
X044805Y009765D02*
X044805Y009172D01*
X043805Y009172D02*
X043805Y009765D01*
X040805Y009765D02*
X040805Y009172D01*
X039805Y009172D02*
X039805Y009765D01*
X038805Y009765D02*
X038805Y009172D01*
X035805Y009172D02*
X035805Y009765D01*
X034805Y009765D02*
X034805Y009172D01*
X033805Y009172D02*
X033805Y009765D01*
X030805Y009765D02*
X030805Y009172D01*
X029805Y009172D02*
X029805Y009765D01*
X028805Y009765D02*
X028805Y009172D01*
X025805Y009172D02*
X025805Y009765D01*
X024805Y009765D02*
X024805Y009172D01*
X023805Y009172D02*
X023805Y009765D01*
X011095Y031110D02*
X011095Y031704D01*
X010095Y031704D02*
X010095Y031110D01*
X009095Y031110D02*
X009095Y031704D01*
D21*
X001991Y006240D03*
X004944Y006240D03*
X007897Y006240D03*
X010850Y006240D03*
X013802Y006240D03*
X016755Y006240D03*
X019708Y006240D03*
X022661Y006240D03*
X025421Y006240D03*
X028373Y006240D03*
X039746Y006240D03*
X042698Y006240D03*
X045651Y006240D03*
X048604Y006240D03*
X051557Y006240D03*
X054509Y006240D03*
X057462Y006240D03*
X060415Y006240D03*
X060345Y034602D03*
X057392Y034602D03*
X054440Y034602D03*
X051487Y034602D03*
X048534Y034602D03*
X045581Y034602D03*
X042629Y034602D03*
X039676Y034602D03*
X025748Y034597D03*
X022795Y034597D03*
X017461Y034597D03*
X014508Y034597D03*
X011555Y034597D03*
X008603Y034597D03*
X005083Y034597D03*
X002130Y034597D03*
D22*
X023423Y029768D03*
X023423Y027768D03*
X028434Y027768D03*
X028434Y029768D03*
X033438Y029768D03*
X033438Y027768D03*
X038414Y027768D03*
X038414Y029768D03*
X043515Y029768D03*
X043515Y027768D03*
X048540Y027768D03*
X048540Y029768D03*
X053518Y029768D03*
X053518Y027768D03*
X058422Y027768D03*
X058422Y029768D03*
X056190Y013019D03*
X056190Y011019D03*
X051197Y011019D03*
X051197Y013019D03*
X046200Y013019D03*
X046200Y011019D03*
X041196Y011019D03*
X041196Y013019D03*
X036201Y013019D03*
X036201Y011019D03*
X031198Y011019D03*
X031198Y013019D03*
X026322Y013019D03*
X026322Y011019D03*
X061216Y011019D03*
X061216Y013019D03*
D23*
X060920Y018413D02*
X020231Y018413D01*
X020231Y018137D01*
X019222Y017129D01*
X018435Y017129D01*
X018435Y017721D01*
X018120Y017721D02*
X018120Y015509D01*
X018233Y015396D01*
X016333Y015396D02*
X016333Y015775D01*
X017810Y017251D01*
X017810Y017716D01*
X017805Y017721D01*
X017800Y017716D01*
X017490Y017721D02*
X017490Y018505D01*
X018016Y018505D01*
X017556Y018744D02*
X014892Y018744D01*
X014892Y018429D02*
X013497Y018429D01*
X013497Y018433D01*
X013994Y017482D02*
X015600Y017482D01*
X015600Y017721D01*
X015911Y017717D02*
X015915Y017721D01*
X015911Y017717D02*
X015911Y017232D01*
X015790Y017110D01*
X015624Y017110D01*
X015492Y016977D01*
X014509Y016977D01*
X015249Y016193D02*
X015991Y016193D01*
X016849Y017051D01*
X016849Y017286D01*
X016850Y017287D01*
X016850Y017711D01*
X016860Y017721D01*
X016545Y017721D02*
X016545Y018452D01*
X016544Y018335D01*
X016230Y017721D02*
X016230Y017175D01*
X015735Y016679D01*
X015249Y016193D02*
X014441Y015386D01*
X014147Y015386D01*
X013320Y015386D02*
X013320Y014650D01*
X013340Y014630D01*
X013364Y014654D01*
X014088Y014630D02*
X014789Y014630D01*
X017181Y017021D01*
X017181Y017308D01*
X017182Y017309D01*
X017182Y017714D01*
X017175Y017721D01*
X017556Y018744D02*
X017556Y020007D01*
X017068Y020418D02*
X017068Y019114D01*
X017032Y019078D01*
X014910Y019078D01*
X014892Y019059D01*
X014892Y019363D02*
X014892Y019374D01*
X014892Y019363D02*
X016654Y019363D01*
X016654Y020992D01*
X016599Y020992D01*
X016714Y021648D02*
X016861Y021750D01*
X016861Y022286D01*
X016860Y022288D01*
X016545Y022288D02*
X016545Y023355D01*
X016537Y023364D01*
X017175Y023585D02*
X015516Y025244D01*
X015516Y026750D01*
X015334Y026933D01*
X015334Y027943D01*
X016334Y026820D02*
X016264Y026750D01*
X017435Y025474D02*
X017206Y025245D01*
X017206Y023961D01*
X017481Y023686D01*
X017481Y022297D01*
X017490Y022288D01*
X017802Y022288D02*
X017805Y022288D01*
X017802Y022288D02*
X017802Y024649D01*
X018334Y023961D02*
X018120Y023747D01*
X018120Y022288D01*
X018123Y022290D01*
X018435Y022288D02*
X018435Y023365D01*
X019106Y023365D01*
X018741Y022510D02*
X018741Y022288D01*
X018750Y022288D01*
X018741Y022510D02*
X025920Y022510D01*
X025920Y023347D01*
X030920Y023347D02*
X030920Y021579D01*
X019459Y021579D01*
X019459Y021264D02*
X035920Y021264D01*
X035920Y023347D01*
X040920Y023347D02*
X040920Y020949D01*
X019459Y020949D01*
X019459Y020634D02*
X041786Y020634D01*
X041786Y021243D01*
X042694Y021243D01*
X042694Y021051D01*
X043794Y020776D02*
X043794Y020319D01*
X019459Y020319D01*
X019459Y020004D02*
X044716Y020004D01*
X044716Y021538D01*
X045437Y022238D02*
X045432Y019710D01*
X019459Y019689D01*
X019459Y019374D02*
X045920Y019374D01*
X045920Y023347D01*
X050920Y023347D02*
X050920Y019059D01*
X019459Y019059D01*
X019459Y018744D02*
X055920Y018744D01*
X055920Y023347D01*
X060920Y023347D02*
X060920Y018413D01*
X038680Y005507D02*
X037856Y006331D01*
X038680Y005507D02*
X038680Y002822D01*
X036187Y002822D01*
X034731Y001366D01*
X014225Y001366D01*
X013753Y001838D01*
X018865Y002322D02*
X019554Y001590D01*
X034434Y001590D01*
X036132Y003331D01*
X037856Y003331D01*
X012576Y014092D02*
X012576Y020005D01*
X014892Y020005D01*
X014892Y020004D01*
X014892Y019689D02*
X013214Y019689D01*
X012989Y019464D01*
X012289Y020323D02*
X014892Y020323D01*
X014892Y020319D01*
X014892Y020634D02*
X010800Y020634D01*
X010654Y020489D01*
X010654Y021489D02*
X010667Y021501D01*
X013260Y021501D01*
X013812Y020949D01*
X014892Y020949D01*
X015535Y021645D02*
X015796Y021645D01*
X015834Y021651D01*
X016714Y021648D01*
X017175Y021723D02*
X017175Y022288D01*
X017175Y023585D01*
X015915Y024184D02*
X015915Y022288D01*
X015600Y022288D02*
X015600Y023602D01*
X014256Y024947D01*
X014599Y025501D02*
X015915Y024184D01*
X017435Y025474D02*
X017481Y025474D01*
X014755Y022425D02*
X013228Y022425D01*
X014755Y022425D02*
X015535Y021645D01*
X017175Y021723D02*
X017179Y021720D01*
X018532Y021720D01*
X018693Y021652D01*
X012289Y020323D02*
X012289Y015092D01*
X010674Y015092D01*
X010674Y014092D02*
X012576Y014092D01*
X010674Y017092D02*
X010654Y017112D01*
X010654Y018489D01*
D24*
X012989Y019464D03*
X013497Y018433D03*
X013994Y017482D03*
X014509Y016977D03*
X015735Y016679D03*
X016544Y018335D03*
X018016Y018505D03*
X017556Y020007D03*
X017068Y020418D03*
X016599Y020992D03*
X015834Y021651D03*
X016537Y023364D03*
X018334Y023961D03*
X017802Y024649D03*
X017481Y025474D03*
X014599Y025501D03*
X014256Y024947D03*
X019106Y023365D03*
X018693Y021652D03*
X023381Y024851D03*
X007238Y026735D03*
X006562Y027526D03*
X018089Y012507D03*
X042694Y021051D03*
X043794Y020776D03*
X044716Y021538D03*
X045437Y022238D03*
D25*
X044920Y025973D02*
X043527Y025973D01*
X043527Y026721D02*
X043527Y027768D01*
X043515Y027768D01*
X044920Y026347D02*
X044920Y025973D01*
X046920Y026347D02*
X046920Y031347D01*
X045920Y031347D01*
X041920Y031347D02*
X040920Y031347D01*
X041920Y031347D02*
X041920Y026347D01*
X039920Y026347D02*
X039920Y025973D01*
X038429Y025973D01*
X038429Y026721D02*
X038429Y027768D01*
X038414Y027768D01*
X036920Y026347D02*
X036920Y031347D01*
X035920Y031347D01*
X031920Y031347D02*
X030920Y031347D01*
X031920Y031347D02*
X031920Y026347D01*
X033420Y025973D02*
X034920Y025973D01*
X034920Y026347D01*
X033420Y026721D02*
X033420Y027768D01*
X033438Y027768D01*
X029920Y026347D02*
X029920Y025973D01*
X028420Y025973D01*
X028420Y026721D02*
X028420Y027768D01*
X028434Y027768D01*
X026920Y026347D02*
X026920Y031347D01*
X025920Y031347D01*
X023423Y027768D02*
X023420Y027768D01*
X023420Y026721D01*
X023420Y025973D02*
X024920Y025973D01*
X024920Y026347D01*
X023381Y024851D02*
X020633Y024851D01*
X018952Y026533D01*
X016482Y026533D01*
X016264Y026750D01*
X016266Y026748D01*
X016334Y026820D02*
X016334Y027943D01*
X016208Y028069D01*
X016208Y028489D01*
X015794Y028903D01*
X013928Y028903D01*
X013148Y028124D01*
X013148Y026344D01*
X013228Y026344D01*
X013228Y022425D01*
X011070Y022425D01*
X011070Y023179D01*
X011896Y023179D02*
X011896Y024679D01*
X011857Y024679D01*
X011109Y024657D02*
X011109Y024679D01*
X011109Y024657D02*
X009855Y024657D01*
X009855Y026051D01*
X010358Y026554D01*
X010358Y028164D01*
X010351Y028171D01*
X010030Y028171D01*
X010022Y028179D01*
X009732Y028179D01*
X010030Y028171D02*
X010030Y031342D01*
X010095Y031407D01*
X010095Y032958D01*
X008603Y034597D01*
X009095Y031407D02*
X008984Y031296D01*
X008984Y028179D01*
X008089Y028179D01*
X008089Y022425D01*
X009896Y022425D01*
X009896Y023179D01*
X009107Y023179D02*
X009070Y023179D01*
X009107Y023179D02*
X009107Y024657D01*
X011358Y026554D02*
X011568Y026344D01*
X013148Y026344D01*
X011358Y026554D02*
X011358Y027928D01*
X011107Y028179D01*
X011095Y028191D01*
X011095Y031407D01*
X015334Y030943D02*
X015334Y030584D01*
X015916Y030001D01*
X018096Y030001D01*
X018494Y030399D01*
X019040Y030399D01*
X019334Y030693D01*
X016334Y030943D02*
X016334Y032625D01*
X014508Y034597D01*
X010359Y028179D02*
X010351Y028171D01*
X007261Y026712D02*
X007238Y026735D01*
X007261Y026712D02*
X007261Y019926D01*
X007698Y019489D01*
X010654Y019489D01*
X010654Y018489D02*
X007361Y018489D01*
X006386Y019464D01*
X006386Y027350D01*
X006562Y027526D01*
X009608Y017092D02*
X009209Y016693D01*
X009209Y012864D01*
X009873Y012199D01*
X012416Y012199D01*
X012416Y003175D01*
X013753Y001838D01*
X018089Y003098D02*
X018865Y002322D01*
X018089Y003098D02*
X018089Y012507D01*
X014090Y013873D02*
X014090Y014628D01*
X014088Y014630D01*
X014090Y013873D02*
X012416Y012199D01*
X010674Y017092D02*
X009608Y017092D01*
X022805Y014469D02*
X022805Y009469D01*
X023805Y009469D01*
X027805Y009469D02*
X027805Y014469D01*
X026319Y014106D02*
X026319Y013019D01*
X026322Y013019D01*
X024805Y014469D02*
X024805Y014854D01*
X026319Y014854D01*
X029805Y014854D02*
X029805Y014469D01*
X029805Y014854D02*
X031198Y014854D01*
X031198Y014106D02*
X031198Y013019D01*
X031198Y013019D01*
X032805Y014469D02*
X032805Y009469D01*
X033805Y009469D01*
X037805Y012404D02*
X038795Y012404D01*
X038795Y009469D01*
X038805Y009469D01*
X042805Y009469D02*
X042805Y014469D01*
X041198Y014106D02*
X041198Y013019D01*
X041196Y013019D01*
X039805Y014469D02*
X039805Y014854D01*
X041198Y014854D01*
X044805Y014854D02*
X044805Y014469D01*
X044805Y014854D02*
X046198Y014854D01*
X046198Y014106D02*
X046198Y013019D01*
X046200Y013019D01*
X047805Y014469D02*
X047805Y009469D01*
X048805Y009469D01*
X052805Y009469D02*
X052805Y014469D01*
X051198Y014106D02*
X051198Y013019D01*
X051197Y013019D01*
X049805Y014469D02*
X049805Y014854D01*
X051198Y014854D01*
X054805Y014854D02*
X054805Y014469D01*
X054805Y014854D02*
X056198Y014854D01*
X056198Y014106D02*
X056198Y013019D01*
X056190Y013019D01*
X057805Y014469D02*
X057805Y009469D01*
X058805Y009469D01*
X053805Y009469D02*
X052805Y009469D01*
X059805Y014469D02*
X059805Y014854D01*
X061218Y014854D01*
X061218Y014106D02*
X061218Y013019D01*
X061216Y013019D01*
X043805Y009469D02*
X042805Y009469D01*
X037805Y012404D02*
X037805Y014469D01*
X036198Y014106D02*
X036198Y013019D01*
X036201Y013019D01*
X034805Y014469D02*
X034805Y014854D01*
X036198Y014854D01*
X028805Y009469D02*
X027805Y009469D01*
X037655Y006331D02*
X037856Y006331D01*
X048527Y025973D02*
X049920Y025973D01*
X049920Y026347D01*
X048527Y026721D02*
X048527Y027768D01*
X048540Y027768D01*
X051920Y026347D02*
X051920Y031347D01*
X050920Y031347D01*
X055920Y031347D02*
X056920Y031347D01*
X056920Y026347D01*
X058420Y025973D02*
X059920Y025973D01*
X059920Y026347D01*
X058420Y026721D02*
X058420Y027768D01*
X058422Y027768D01*
X061920Y026347D02*
X061920Y031347D01*
X060920Y031347D01*
X053527Y027768D02*
X053527Y026721D01*
X053527Y025973D02*
X054920Y025973D01*
X054920Y026347D01*
X053527Y027768D02*
X053518Y027768D01*
D26*
X013130Y033442D02*
X011095Y031407D01*
X013130Y033442D02*
X013130Y035674D01*
X012130Y036674D01*
X003130Y036674D01*
X002130Y035674D01*
X002130Y034597D01*
X005083Y034597D02*
X008603Y034597D01*
D27*
X023920Y032153D02*
X023920Y031347D01*
X023920Y032153D02*
X024996Y033228D01*
X033356Y033228D01*
X034725Y034598D01*
X039672Y034598D01*
X039676Y034602D01*
X037222Y009469D02*
X035805Y009469D01*
X037222Y009469D02*
X038517Y008174D01*
X043608Y008174D01*
X045479Y006302D01*
X045651Y006240D01*
M02*
