G75*
G70*
%OFA0B0*%
%FSLAX24Y24*%
%IPPOS*%
%LPD*%
%AMOC8*
5,1,8,0,0,1.08239X$1,22.5*
%
%ADD10C,0.1559*%
%ADD11R,0.0236X0.0630*%
%ADD12R,0.0630X0.0236*%
%ADD13C,0.0712*%
%ADD14R,0.0614X0.0693*%
%ADD15C,0.0803*%
%ADD16OC8,0.0803*%
%ADD17R,0.0567X0.0567*%
%ADD18C,0.0571*%
%ADD19C,0.0780*%
%ADD20R,0.0693X0.0614*%
%ADD21C,0.0712*%
%ADD22C,0.1200*%
%ADD23OC8,0.0665*%
%ADD24C,0.0523*%
D10*
X003123Y010111D03*
X001495Y031605D03*
X031443Y037847D03*
X038333Y022107D03*
X062205Y033288D03*
X062185Y007682D03*
D11*
X018750Y017721D03*
X018435Y017721D03*
X018120Y017721D03*
X017805Y017721D03*
X017490Y017721D03*
X017175Y017721D03*
X016860Y017721D03*
X016545Y017721D03*
X016230Y017721D03*
X015915Y017721D03*
X015600Y017721D03*
X015600Y022288D03*
X015915Y022288D03*
X016230Y022288D03*
X016545Y022288D03*
X016860Y022288D03*
X017175Y022288D03*
X017490Y022288D03*
X017805Y022288D03*
X018120Y022288D03*
X018435Y022288D03*
X018750Y022288D03*
D12*
X019459Y021579D03*
X019459Y021264D03*
X019459Y020949D03*
X019459Y020634D03*
X019459Y020319D03*
X019459Y020004D03*
X019459Y019689D03*
X019459Y019374D03*
X019459Y019059D03*
X019459Y018744D03*
X019459Y018429D03*
X014892Y018429D03*
X014892Y018744D03*
X014892Y019059D03*
X014892Y019374D03*
X014892Y019689D03*
X014892Y020004D03*
X014892Y020319D03*
X014892Y020634D03*
X014892Y020949D03*
X014892Y021264D03*
X014892Y021579D03*
D13*
X016333Y015396D03*
X018233Y015396D03*
X033766Y006341D03*
X033766Y002341D03*
D14*
X014088Y014630D03*
X013340Y014630D03*
X011857Y024679D03*
X011109Y024679D03*
X009855Y024657D03*
X009107Y024657D03*
X008984Y028179D03*
X009732Y028179D03*
X010359Y028179D03*
X011107Y028179D03*
X015516Y026750D03*
X016264Y026750D03*
D15*
X011358Y026554D03*
D16*
X010358Y026554D03*
D17*
X009896Y023179D03*
X009070Y023179D03*
X011070Y023179D03*
X011896Y023179D03*
X013320Y015386D03*
X014147Y015386D03*
D18*
X014334Y027705D02*
X014334Y028181D01*
X015334Y028181D02*
X015334Y027705D01*
X016334Y027705D02*
X016334Y028181D01*
X017334Y028181D02*
X017334Y027705D01*
X017334Y030705D02*
X017334Y031181D01*
X016334Y031181D02*
X016334Y030705D01*
X015334Y030705D02*
X015334Y031181D01*
X014334Y031181D02*
X014334Y030705D01*
X034618Y006331D02*
X035094Y006331D01*
X035094Y005331D02*
X034618Y005331D01*
X034618Y004331D02*
X035094Y004331D01*
X035094Y003331D02*
X034618Y003331D01*
X037618Y003331D02*
X038094Y003331D01*
X038094Y004331D02*
X037618Y004331D01*
X037618Y005331D02*
X038094Y005331D01*
X038094Y006331D02*
X037618Y006331D01*
D19*
X037805Y014144D02*
X037805Y014793D01*
X038805Y014793D02*
X038805Y014144D01*
X039805Y014144D02*
X039805Y014793D01*
X042805Y014793D02*
X042805Y014144D01*
X043805Y014144D02*
X043805Y014793D01*
X044805Y014793D02*
X044805Y014144D01*
X047805Y014144D02*
X047805Y014793D01*
X048805Y014793D02*
X048805Y014144D01*
X049805Y014144D02*
X049805Y014793D01*
X052805Y014793D02*
X052805Y014144D01*
X053805Y014144D02*
X053805Y014793D01*
X054805Y014793D02*
X054805Y014144D01*
X057805Y014144D02*
X057805Y014793D01*
X058805Y014793D02*
X058805Y014144D01*
X059805Y014144D02*
X059805Y014793D01*
X059805Y017144D02*
X059805Y017793D01*
X058805Y017793D02*
X058805Y017144D01*
X057805Y017144D02*
X057805Y017793D01*
X054805Y017793D02*
X054805Y017144D01*
X053805Y017144D02*
X053805Y017793D01*
X052805Y017793D02*
X052805Y017144D01*
X049805Y017144D02*
X049805Y017793D01*
X048805Y017793D02*
X048805Y017144D01*
X047805Y017144D02*
X047805Y017793D01*
X044805Y017793D02*
X044805Y017144D01*
X043805Y017144D02*
X043805Y017793D01*
X042805Y017793D02*
X042805Y017144D01*
X039805Y017144D02*
X039805Y017793D01*
X038805Y017793D02*
X038805Y017144D01*
X037805Y017144D02*
X037805Y017793D01*
X034805Y017793D02*
X034805Y017144D01*
X033805Y017144D02*
X033805Y017793D01*
X032805Y017793D02*
X032805Y017144D01*
X029805Y017144D02*
X029805Y017793D01*
X028805Y017793D02*
X028805Y017144D01*
X027805Y017144D02*
X027805Y017793D01*
X024805Y017793D02*
X024805Y017144D01*
X023805Y017144D02*
X023805Y017793D01*
X022805Y017793D02*
X022805Y017144D01*
X022805Y014793D02*
X022805Y014144D01*
X023805Y014144D02*
X023805Y014793D01*
X024805Y014793D02*
X024805Y014144D01*
X027805Y014144D02*
X027805Y014793D01*
X028805Y014793D02*
X028805Y014144D01*
X029805Y014144D02*
X029805Y014793D01*
X032805Y014793D02*
X032805Y014144D01*
X033805Y014144D02*
X033805Y014793D01*
X034805Y014793D02*
X034805Y014144D01*
X034920Y023022D02*
X034920Y023672D01*
X035920Y023672D02*
X035920Y023022D01*
X036920Y023022D02*
X036920Y023672D01*
X039920Y023672D02*
X039920Y023022D01*
X040920Y023022D02*
X040920Y023672D01*
X041920Y023672D02*
X041920Y023022D01*
X044920Y023022D02*
X044920Y023672D01*
X045920Y023672D02*
X045920Y023022D01*
X046920Y023022D02*
X046920Y023672D01*
X049920Y023672D02*
X049920Y023022D01*
X050920Y023022D02*
X050920Y023672D01*
X051920Y023672D02*
X051920Y023022D01*
X054920Y023022D02*
X054920Y023672D01*
X055920Y023672D02*
X055920Y023022D01*
X056920Y023022D02*
X056920Y023672D01*
X059920Y023672D02*
X059920Y023022D01*
X060920Y023022D02*
X060920Y023672D01*
X061920Y023672D02*
X061920Y023022D01*
X061920Y026022D02*
X061920Y026672D01*
X060920Y026672D02*
X060920Y026022D01*
X059920Y026022D02*
X059920Y026672D01*
X056920Y026672D02*
X056920Y026022D01*
X055920Y026022D02*
X055920Y026672D01*
X054920Y026672D02*
X054920Y026022D01*
X051920Y026022D02*
X051920Y026672D01*
X050920Y026672D02*
X050920Y026022D01*
X049920Y026022D02*
X049920Y026672D01*
X046920Y026672D02*
X046920Y026022D01*
X045920Y026022D02*
X045920Y026672D01*
X044920Y026672D02*
X044920Y026022D01*
X041920Y026022D02*
X041920Y026672D01*
X040920Y026672D02*
X040920Y026022D01*
X039920Y026022D02*
X039920Y026672D01*
X036920Y026672D02*
X036920Y026022D01*
X035920Y026022D02*
X035920Y026672D01*
X034920Y026672D02*
X034920Y026022D01*
X031920Y026022D02*
X031920Y026672D01*
X030920Y026672D02*
X030920Y026022D01*
X029920Y026022D02*
X029920Y026672D01*
X026920Y026672D02*
X026920Y026022D01*
X025920Y026022D02*
X025920Y026672D01*
X024920Y026672D02*
X024920Y026022D01*
X024920Y023672D02*
X024920Y023022D01*
X025920Y023022D02*
X025920Y023672D01*
X026920Y023672D02*
X026920Y023022D01*
X029920Y023022D02*
X029920Y023672D01*
X030920Y023672D02*
X030920Y023022D01*
X031920Y023022D02*
X031920Y023672D01*
X010979Y021489D02*
X010330Y021489D01*
X010330Y020489D02*
X010979Y020489D01*
X010979Y019489D02*
X010330Y019489D01*
X010330Y018489D02*
X010979Y018489D01*
X010999Y017092D02*
X010349Y017092D01*
X010349Y016092D02*
X010999Y016092D01*
X010999Y015092D02*
X010349Y015092D01*
X010349Y014092D02*
X010999Y014092D01*
X010999Y013092D02*
X010349Y013092D01*
D20*
X026319Y014106D03*
X026319Y014854D03*
X031198Y014854D03*
X031198Y014106D03*
X036198Y014106D03*
X036198Y014854D03*
X041198Y014854D03*
X041198Y014106D03*
X046198Y014106D03*
X046198Y014854D03*
X051198Y014854D03*
X051198Y014106D03*
X056198Y014106D03*
X056198Y014854D03*
X061218Y014854D03*
X061218Y014106D03*
X058420Y025973D03*
X058420Y026721D03*
X053527Y026721D03*
X053527Y025973D03*
X048527Y025973D03*
X048527Y026721D03*
X043527Y026721D03*
X043527Y025973D03*
X038429Y025973D03*
X038429Y026721D03*
X033420Y026721D03*
X033420Y025973D03*
X028420Y025973D03*
X028420Y026721D03*
X023420Y026721D03*
X023420Y025973D03*
D21*
X019631Y029693D02*
X019037Y029693D01*
X019037Y030693D02*
X019631Y030693D01*
X023920Y031050D02*
X023920Y031644D01*
X024920Y031644D02*
X024920Y031050D01*
X025920Y031050D02*
X025920Y031644D01*
X028920Y031644D02*
X028920Y031050D01*
X029920Y031050D02*
X029920Y031644D01*
X030920Y031644D02*
X030920Y031050D01*
X033920Y031050D02*
X033920Y031644D01*
X034920Y031644D02*
X034920Y031050D01*
X035920Y031050D02*
X035920Y031644D01*
X038920Y031644D02*
X038920Y031050D01*
X039920Y031050D02*
X039920Y031644D01*
X040920Y031644D02*
X040920Y031050D01*
X043920Y031050D02*
X043920Y031644D01*
X044920Y031644D02*
X044920Y031050D01*
X045920Y031050D02*
X045920Y031644D01*
X048920Y031644D02*
X048920Y031050D01*
X049920Y031050D02*
X049920Y031644D01*
X050920Y031644D02*
X050920Y031050D01*
X053920Y031050D02*
X053920Y031644D01*
X054920Y031644D02*
X054920Y031050D01*
X055920Y031050D02*
X055920Y031644D01*
X058920Y031644D02*
X058920Y031050D01*
X059920Y031050D02*
X059920Y031644D01*
X060920Y031644D02*
X060920Y031050D01*
X060805Y009765D02*
X060805Y009172D01*
X059805Y009172D02*
X059805Y009765D01*
X058805Y009765D02*
X058805Y009172D01*
X055805Y009172D02*
X055805Y009765D01*
X054805Y009765D02*
X054805Y009172D01*
X053805Y009172D02*
X053805Y009765D01*
X050805Y009765D02*
X050805Y009172D01*
X049805Y009172D02*
X049805Y009765D01*
X048805Y009765D02*
X048805Y009172D01*
X045805Y009172D02*
X045805Y009765D01*
X044805Y009765D02*
X044805Y009172D01*
X043805Y009172D02*
X043805Y009765D01*
X040805Y009765D02*
X040805Y009172D01*
X039805Y009172D02*
X039805Y009765D01*
X038805Y009765D02*
X038805Y009172D01*
X035805Y009172D02*
X035805Y009765D01*
X034805Y009765D02*
X034805Y009172D01*
X033805Y009172D02*
X033805Y009765D01*
X030805Y009765D02*
X030805Y009172D01*
X029805Y009172D02*
X029805Y009765D01*
X028805Y009765D02*
X028805Y009172D01*
X025805Y009172D02*
X025805Y009765D01*
X024805Y009765D02*
X024805Y009172D01*
X023805Y009172D02*
X023805Y009765D01*
X011095Y031110D02*
X011095Y031704D01*
X010095Y031704D02*
X010095Y031110D01*
X009095Y031110D02*
X009095Y031704D01*
D22*
X001991Y006240D03*
X004944Y006240D03*
X007897Y006240D03*
X010850Y006240D03*
X013802Y006240D03*
X016755Y006240D03*
X019708Y006240D03*
X022661Y006240D03*
X025421Y006240D03*
X028373Y006240D03*
X039746Y006240D03*
X042698Y006240D03*
X045651Y006240D03*
X048604Y006240D03*
X051557Y006240D03*
X054509Y006240D03*
X057462Y006240D03*
X060415Y006240D03*
X060345Y034602D03*
X057392Y034602D03*
X054440Y034602D03*
X051487Y034602D03*
X048534Y034602D03*
X045581Y034602D03*
X042629Y034602D03*
X039676Y034602D03*
X025748Y034597D03*
X022795Y034597D03*
X017461Y034597D03*
X014508Y034597D03*
X011555Y034597D03*
X008603Y034597D03*
X005083Y034597D03*
X002130Y034597D03*
D23*
X023423Y029768D03*
X023423Y027768D03*
X028434Y027768D03*
X028434Y029768D03*
X033438Y029768D03*
X033438Y027768D03*
X038414Y027768D03*
X038414Y029768D03*
X043515Y029768D03*
X043515Y027768D03*
X048540Y027768D03*
X048540Y029768D03*
X053518Y029768D03*
X053518Y027768D03*
X058422Y027768D03*
X058422Y029768D03*
X056190Y013019D03*
X056190Y011019D03*
X051197Y011019D03*
X051197Y013019D03*
X046200Y013019D03*
X046200Y011019D03*
X041196Y011019D03*
X041196Y013019D03*
X036201Y013019D03*
X036201Y011019D03*
X031198Y011019D03*
X031198Y013019D03*
X026322Y013019D03*
X026322Y011019D03*
X061216Y011019D03*
X061216Y013019D03*
D24*
X045437Y022238D03*
X044716Y021538D03*
X043794Y020776D03*
X042694Y021051D03*
X023381Y024851D03*
X019106Y023365D03*
X018334Y023961D03*
X017802Y024649D03*
X017481Y025474D03*
X014599Y025501D03*
X014256Y024947D03*
X016537Y023364D03*
X015834Y021651D03*
X016599Y020992D03*
X017068Y020418D03*
X017556Y020007D03*
X018016Y018505D03*
X016544Y018335D03*
X015735Y016679D03*
X014509Y016977D03*
X013994Y017482D03*
X013497Y018433D03*
X012989Y019464D03*
X018693Y021652D03*
X007238Y026735D03*
X006562Y027526D03*
X018089Y012507D03*
M02*
