G75*
G70*
%OFA0B0*%
%FSLAX24Y24*%
%IPPOS*%
%LPD*%
%AMOC8*
5,1,8,0,0,1.08239X$1,22.5*
%
%ADD10C,0.1559*%
%ADD11C,0.0712*%
%ADD12R,0.0693X0.0614*%
%ADD13R,0.0614X0.0693*%
%ADD14C,0.0803*%
%ADD15OC8,0.0803*%
%ADD16R,0.0618X0.0165*%
%ADD17C,0.0571*%
%ADD18R,0.0732X0.0614*%
%ADD19C,0.0780*%
%ADD20C,0.0712*%
%ADD21R,0.0614X0.0732*%
%ADD22C,0.1200*%
%ADD23OC8,0.0665*%
%ADD24R,0.0882X0.0803*%
%ADD25R,0.0850X0.1402*%
%ADD26C,0.0523*%
D10*
X003123Y010111D03*
X001495Y031605D03*
X031443Y037847D03*
X038333Y022107D03*
X062205Y033288D03*
X062185Y007682D03*
D11*
X033766Y006341D03*
X033766Y002341D03*
X018233Y015396D03*
X016333Y015396D03*
D12*
X016335Y014608D03*
X016335Y013860D03*
X018170Y013860D03*
X018170Y014608D03*
X024805Y012843D03*
X024805Y012095D03*
X029698Y012245D03*
X029698Y012993D03*
X034698Y012993D03*
X034698Y012245D03*
X039698Y012245D03*
X039698Y012993D03*
X044698Y012993D03*
X044698Y012245D03*
X049698Y012245D03*
X049698Y012993D03*
X054698Y012993D03*
X054698Y012245D03*
X059698Y012245D03*
X059698Y012993D03*
X059920Y027823D03*
X059920Y028571D03*
X054924Y028571D03*
X054924Y027823D03*
X049910Y027823D03*
X049910Y028571D03*
X044910Y028571D03*
X044910Y027823D03*
X039905Y027823D03*
X039905Y028571D03*
X034902Y028571D03*
X034902Y027823D03*
X029902Y027823D03*
X029902Y028571D03*
X024920Y028571D03*
X024920Y027823D03*
X036356Y004875D03*
X036356Y004127D03*
D13*
X017862Y017774D03*
X017114Y017774D03*
X016208Y029193D03*
X015460Y029193D03*
D14*
X011358Y026554D03*
D15*
X010358Y026554D03*
D16*
X015710Y021239D03*
X015710Y020983D03*
X015710Y020728D03*
X015710Y020472D03*
X015710Y020216D03*
X015710Y019960D03*
X015710Y019704D03*
X015710Y019448D03*
X015710Y019192D03*
X015710Y018936D03*
X018564Y018936D03*
X018564Y019192D03*
X018564Y019448D03*
X018564Y019704D03*
X018564Y019960D03*
X018564Y020216D03*
X018564Y020472D03*
X018564Y020728D03*
X018564Y020983D03*
X018564Y021239D03*
D17*
X017334Y027705D02*
X017334Y028181D01*
X016334Y028181D02*
X016334Y027705D01*
X015334Y027705D02*
X015334Y028181D01*
X014334Y028181D02*
X014334Y027705D01*
X014334Y030705D02*
X014334Y031181D01*
X015334Y031181D02*
X015334Y030705D01*
X016334Y030705D02*
X016334Y031181D01*
X017334Y031181D02*
X017334Y030705D01*
X034618Y006331D02*
X035094Y006331D01*
X035094Y005331D02*
X034618Y005331D01*
X034618Y004331D02*
X035094Y004331D01*
X035094Y003331D02*
X034618Y003331D01*
X037618Y003331D02*
X038094Y003331D01*
X038094Y004331D02*
X037618Y004331D01*
X037618Y005331D02*
X038094Y005331D01*
X038094Y006331D02*
X037618Y006331D01*
D18*
X036356Y006468D03*
X036356Y005720D03*
X038806Y015592D03*
X038806Y016340D03*
X043803Y016340D03*
X043803Y015592D03*
X048806Y015592D03*
X048806Y016340D03*
X053803Y016340D03*
X053803Y015592D03*
X058806Y015595D03*
X058806Y016343D03*
X060919Y024471D03*
X060919Y025219D03*
X055925Y025219D03*
X055925Y024471D03*
X050923Y024471D03*
X050923Y025219D03*
X045921Y025219D03*
X045921Y024471D03*
X040919Y024471D03*
X040919Y025219D03*
X035917Y025219D03*
X035917Y024471D03*
X030922Y024471D03*
X030922Y025219D03*
X025921Y025225D03*
X025921Y024477D03*
X023805Y016342D03*
X023805Y015594D03*
X028807Y015592D03*
X028807Y016340D03*
X033804Y016340D03*
X033804Y015592D03*
D19*
X033805Y014793D02*
X033805Y014144D01*
X034805Y014144D02*
X034805Y014793D01*
X032805Y014793D02*
X032805Y014144D01*
X029805Y014144D02*
X029805Y014793D01*
X028805Y014793D02*
X028805Y014144D01*
X027805Y014144D02*
X027805Y014793D01*
X024805Y014793D02*
X024805Y014144D01*
X023805Y014144D02*
X023805Y014793D01*
X022805Y014793D02*
X022805Y014144D01*
X022805Y017144D02*
X022805Y017793D01*
X023805Y017793D02*
X023805Y017144D01*
X024805Y017144D02*
X024805Y017793D01*
X027805Y017793D02*
X027805Y017144D01*
X028805Y017144D02*
X028805Y017793D01*
X029805Y017793D02*
X029805Y017144D01*
X032805Y017144D02*
X032805Y017793D01*
X033805Y017793D02*
X033805Y017144D01*
X034805Y017144D02*
X034805Y017793D01*
X037805Y017793D02*
X037805Y017144D01*
X038805Y017144D02*
X038805Y017793D01*
X039805Y017793D02*
X039805Y017144D01*
X042805Y017144D02*
X042805Y017793D01*
X043805Y017793D02*
X043805Y017144D01*
X044805Y017144D02*
X044805Y017793D01*
X047805Y017793D02*
X047805Y017144D01*
X048805Y017144D02*
X048805Y017793D01*
X049805Y017793D02*
X049805Y017144D01*
X052805Y017144D02*
X052805Y017793D01*
X053805Y017793D02*
X053805Y017144D01*
X054805Y017144D02*
X054805Y017793D01*
X057805Y017793D02*
X057805Y017144D01*
X058805Y017144D02*
X058805Y017793D01*
X059805Y017793D02*
X059805Y017144D01*
X059805Y014793D02*
X059805Y014144D01*
X058805Y014144D02*
X058805Y014793D01*
X057805Y014793D02*
X057805Y014144D01*
X054805Y014144D02*
X054805Y014793D01*
X053805Y014793D02*
X053805Y014144D01*
X052805Y014144D02*
X052805Y014793D01*
X049805Y014793D02*
X049805Y014144D01*
X048805Y014144D02*
X048805Y014793D01*
X047805Y014793D02*
X047805Y014144D01*
X044805Y014144D02*
X044805Y014793D01*
X043805Y014793D02*
X043805Y014144D01*
X042805Y014144D02*
X042805Y014793D01*
X039805Y014793D02*
X039805Y014144D01*
X038805Y014144D02*
X038805Y014793D01*
X037805Y014793D02*
X037805Y014144D01*
X036920Y023022D02*
X036920Y023672D01*
X035920Y023672D02*
X035920Y023022D01*
X034920Y023022D02*
X034920Y023672D01*
X031920Y023672D02*
X031920Y023022D01*
X030920Y023022D02*
X030920Y023672D01*
X029920Y023672D02*
X029920Y023022D01*
X026920Y023022D02*
X026920Y023672D01*
X025920Y023672D02*
X025920Y023022D01*
X024920Y023022D02*
X024920Y023672D01*
X024920Y026022D02*
X024920Y026672D01*
X025920Y026672D02*
X025920Y026022D01*
X026920Y026022D02*
X026920Y026672D01*
X029920Y026672D02*
X029920Y026022D01*
X030920Y026022D02*
X030920Y026672D01*
X031920Y026672D02*
X031920Y026022D01*
X034920Y026022D02*
X034920Y026672D01*
X035920Y026672D02*
X035920Y026022D01*
X036920Y026022D02*
X036920Y026672D01*
X039920Y026672D02*
X039920Y026022D01*
X040920Y026022D02*
X040920Y026672D01*
X041920Y026672D02*
X041920Y026022D01*
X044920Y026022D02*
X044920Y026672D01*
X045920Y026672D02*
X045920Y026022D01*
X046920Y026022D02*
X046920Y026672D01*
X049920Y026672D02*
X049920Y026022D01*
X050920Y026022D02*
X050920Y026672D01*
X051920Y026672D02*
X051920Y026022D01*
X054920Y026022D02*
X054920Y026672D01*
X055920Y026672D02*
X055920Y026022D01*
X056920Y026022D02*
X056920Y026672D01*
X059920Y026672D02*
X059920Y026022D01*
X060920Y026022D02*
X060920Y026672D01*
X061920Y026672D02*
X061920Y026022D01*
X061920Y023672D02*
X061920Y023022D01*
X060920Y023022D02*
X060920Y023672D01*
X059920Y023672D02*
X059920Y023022D01*
X056920Y023022D02*
X056920Y023672D01*
X055920Y023672D02*
X055920Y023022D01*
X054920Y023022D02*
X054920Y023672D01*
X051920Y023672D02*
X051920Y023022D01*
X050920Y023022D02*
X050920Y023672D01*
X049920Y023672D02*
X049920Y023022D01*
X046920Y023022D02*
X046920Y023672D01*
X045920Y023672D02*
X045920Y023022D01*
X044920Y023022D02*
X044920Y023672D01*
X041920Y023672D02*
X041920Y023022D01*
X040920Y023022D02*
X040920Y023672D01*
X039920Y023672D02*
X039920Y023022D01*
X010979Y021489D02*
X010330Y021489D01*
X010330Y020489D02*
X010979Y020489D01*
X010979Y019489D02*
X010330Y019489D01*
X010330Y018489D02*
X010979Y018489D01*
X010999Y017092D02*
X010349Y017092D01*
X010349Y016092D02*
X010999Y016092D01*
X010999Y015092D02*
X010349Y015092D01*
X010349Y014092D02*
X010999Y014092D01*
X010999Y013092D02*
X010349Y013092D01*
D20*
X023805Y009765D02*
X023805Y009172D01*
X024805Y009172D02*
X024805Y009765D01*
X025805Y009765D02*
X025805Y009172D01*
X028805Y009172D02*
X028805Y009765D01*
X029805Y009765D02*
X029805Y009172D01*
X030805Y009172D02*
X030805Y009765D01*
X033805Y009765D02*
X033805Y009172D01*
X034805Y009172D02*
X034805Y009765D01*
X035805Y009765D02*
X035805Y009172D01*
X038805Y009172D02*
X038805Y009765D01*
X039805Y009765D02*
X039805Y009172D01*
X040805Y009172D02*
X040805Y009765D01*
X043805Y009765D02*
X043805Y009172D01*
X044805Y009172D02*
X044805Y009765D01*
X045805Y009765D02*
X045805Y009172D01*
X048805Y009172D02*
X048805Y009765D01*
X049805Y009765D02*
X049805Y009172D01*
X050805Y009172D02*
X050805Y009765D01*
X053805Y009765D02*
X053805Y009172D01*
X054805Y009172D02*
X054805Y009765D01*
X055805Y009765D02*
X055805Y009172D01*
X058805Y009172D02*
X058805Y009765D01*
X059805Y009765D02*
X059805Y009172D01*
X060805Y009172D02*
X060805Y009765D01*
X060920Y031050D02*
X060920Y031644D01*
X059920Y031644D02*
X059920Y031050D01*
X058920Y031050D02*
X058920Y031644D01*
X055920Y031644D02*
X055920Y031050D01*
X054920Y031050D02*
X054920Y031644D01*
X053920Y031644D02*
X053920Y031050D01*
X050920Y031050D02*
X050920Y031644D01*
X049920Y031644D02*
X049920Y031050D01*
X048920Y031050D02*
X048920Y031644D01*
X045920Y031644D02*
X045920Y031050D01*
X044920Y031050D02*
X044920Y031644D01*
X043920Y031644D02*
X043920Y031050D01*
X040920Y031050D02*
X040920Y031644D01*
X039920Y031644D02*
X039920Y031050D01*
X038920Y031050D02*
X038920Y031644D01*
X035920Y031644D02*
X035920Y031050D01*
X034920Y031050D02*
X034920Y031644D01*
X033920Y031644D02*
X033920Y031050D01*
X030920Y031050D02*
X030920Y031644D01*
X029920Y031644D02*
X029920Y031050D01*
X028920Y031050D02*
X028920Y031644D01*
X025920Y031644D02*
X025920Y031050D01*
X024920Y031050D02*
X024920Y031644D01*
X023920Y031644D02*
X023920Y031050D01*
X019631Y030693D02*
X019037Y030693D01*
X019037Y029693D02*
X019631Y029693D01*
X011095Y031110D02*
X011095Y031704D01*
X010095Y031704D02*
X010095Y031110D01*
X009095Y031110D02*
X009095Y031704D01*
D21*
X017460Y029193D03*
X018208Y029193D03*
D22*
X001991Y006240D03*
X004944Y006240D03*
X007897Y006240D03*
X010850Y006240D03*
X013802Y006240D03*
X016755Y006240D03*
X019708Y006240D03*
X022661Y006240D03*
X025421Y006240D03*
X028373Y006240D03*
X039746Y006240D03*
X042698Y006240D03*
X045651Y006240D03*
X048604Y006240D03*
X051557Y006240D03*
X054509Y006240D03*
X057462Y006240D03*
X060415Y006240D03*
X060345Y034602D03*
X057392Y034602D03*
X054440Y034602D03*
X051487Y034602D03*
X048534Y034602D03*
X045581Y034602D03*
X042629Y034602D03*
X039676Y034602D03*
X025748Y034597D03*
X022795Y034597D03*
X017461Y034597D03*
X014508Y034597D03*
X011555Y034597D03*
X008603Y034597D03*
X005083Y034597D03*
X002130Y034597D03*
D23*
X023423Y029768D03*
X023423Y027768D03*
X028434Y027768D03*
X028434Y029768D03*
X033438Y029768D03*
X033438Y027768D03*
X038414Y027768D03*
X038414Y029768D03*
X043515Y029768D03*
X043515Y027768D03*
X048540Y027768D03*
X048540Y029768D03*
X053518Y029768D03*
X053518Y027768D03*
X058422Y027768D03*
X058422Y029768D03*
X056190Y013019D03*
X056190Y011019D03*
X051197Y011019D03*
X051197Y013019D03*
X046200Y013019D03*
X046200Y011019D03*
X041196Y011019D03*
X041196Y013019D03*
X036201Y013019D03*
X036201Y011019D03*
X031198Y011019D03*
X031198Y013019D03*
X026322Y013019D03*
X026322Y011019D03*
X061216Y011019D03*
X061216Y013019D03*
D24*
X028670Y004601D03*
X028670Y002594D03*
X025127Y002594D03*
X025127Y004601D03*
D25*
X030296Y004722D03*
X032501Y004722D03*
X032501Y002597D03*
X030296Y002597D03*
D26*
X018089Y012507D03*
X015735Y016679D03*
X014509Y016977D03*
X013994Y017482D03*
X013497Y018433D03*
X012989Y019464D03*
X015834Y021651D03*
X016599Y020992D03*
X017068Y020418D03*
X017556Y020007D03*
X018016Y018505D03*
X016544Y018335D03*
X018693Y021652D03*
X019106Y023365D03*
X018334Y023961D03*
X017802Y024649D03*
X017481Y025474D03*
X014599Y025501D03*
X014256Y024947D03*
X016537Y023364D03*
X023381Y024851D03*
X007238Y026735D03*
X006562Y027526D03*
X042694Y021051D03*
X043794Y020776D03*
X044716Y021538D03*
X045437Y022238D03*
M02*
