G75*
G70*
%OFA0B0*%
%FSLAX24Y24*%
%IPPOS*%
%LPD*%
%AMOC8*
5,1,8,0,0,1.08239X$1,22.5*
%
%ADD10C,0.0554*%
%ADD11R,0.0433X0.0394*%
%ADD12C,0.0554*%
%ADD13C,0.0594*%
%ADD14C,0.1000*%
%ADD15R,0.0394X0.0433*%
%ADD16R,0.0630X0.0551*%
%ADD17R,0.0472X0.0315*%
%ADD18R,0.0551X0.0472*%
%ADD19C,0.0650*%
%ADD20R,0.0315X0.0472*%
%ADD21C,0.1660*%
%ADD22C,0.0160*%
%ADD23C,0.0120*%
%ADD24C,0.0320*%
%ADD25C,0.0436*%
%ADD26C,0.0100*%
%ADD27C,0.0240*%
D10*
X004467Y007379D03*
X006367Y007379D03*
X010675Y023774D03*
X010675Y024562D03*
X011659Y024562D03*
X011659Y023774D03*
D11*
X006752Y006629D03*
X006083Y006629D03*
X005002Y006629D03*
X004333Y006629D03*
D12*
X005167Y014851D02*
X005167Y015406D01*
X006167Y015406D02*
X006167Y014851D01*
X007167Y014851D02*
X007167Y015406D01*
X008167Y015406D02*
X008167Y014851D01*
X008167Y017851D02*
X008167Y018406D01*
X007167Y018406D02*
X007167Y017851D01*
X006167Y017851D02*
X006167Y018406D01*
X005167Y018406D02*
X005167Y017851D01*
D13*
X001964Y019129D02*
X001370Y019129D01*
X001370Y020129D02*
X001964Y020129D01*
X001964Y021129D02*
X001370Y021129D01*
X001370Y016129D02*
X001964Y016129D01*
X001964Y015129D02*
X001370Y015129D01*
X001370Y014129D02*
X001964Y014129D01*
X012120Y012629D02*
X012714Y012629D01*
X012714Y011629D02*
X012120Y011629D01*
X012120Y010629D02*
X012714Y010629D01*
X012714Y009629D02*
X012120Y009629D01*
X012120Y008629D02*
X012714Y008629D01*
D14*
X010417Y004879D03*
X008417Y004879D03*
X006417Y004879D03*
X004417Y004879D03*
X004167Y024879D03*
X002167Y024879D03*
D15*
X003667Y019963D03*
X003667Y019294D03*
X003167Y016963D03*
X003167Y016294D03*
X003167Y014463D03*
X003167Y013794D03*
D16*
X004010Y016077D03*
X004010Y017180D03*
D17*
X004667Y019274D03*
X004667Y019983D03*
X005667Y019983D03*
X005667Y019274D03*
X006667Y019274D03*
X006667Y019983D03*
X007167Y010983D03*
X007167Y010274D03*
D18*
X006167Y010038D03*
X006167Y011219D03*
X004917Y011219D03*
X004917Y010038D03*
X003667Y010038D03*
X003667Y011219D03*
X004667Y020538D03*
X004667Y021719D03*
X005667Y021719D03*
X005667Y020538D03*
X006667Y020538D03*
X006667Y021719D03*
D19*
X008342Y021129D02*
X008992Y021129D01*
X008992Y020129D02*
X008342Y020129D01*
X002542Y005129D02*
X001892Y005129D01*
X001892Y004129D02*
X002542Y004129D01*
D20*
X003563Y009379D03*
X004272Y009379D03*
X004813Y009379D03*
X005522Y009379D03*
D21*
X008797Y025629D03*
X013537Y025629D03*
D22*
X011567Y023569D02*
X011567Y019249D01*
X009886Y017331D01*
X009487Y018689D02*
X011167Y020369D01*
X011167Y023969D01*
X008667Y021129D02*
X008207Y021409D01*
X008207Y021489D02*
X007685Y021489D01*
X007685Y016689D01*
X007567Y015969D01*
X007247Y015649D01*
X007167Y015129D01*
X006648Y014412D02*
X006648Y016026D01*
X007002Y016380D01*
X007002Y016853D01*
X007277Y017129D01*
X007277Y018018D01*
X007167Y018129D01*
X006667Y019274D02*
X005667Y019274D01*
X005487Y019169D01*
X005327Y019009D01*
X005327Y018609D01*
X005167Y018129D01*
X005007Y018609D01*
X005007Y019009D01*
X004847Y019169D01*
X004687Y020129D02*
X004687Y020369D01*
X005167Y021249D02*
X005407Y021489D01*
X005727Y020369D02*
X005727Y020129D01*
X006687Y020129D02*
X006687Y020369D01*
X006927Y021489D02*
X006667Y021719D01*
X006927Y021489D02*
X007685Y021489D01*
X006167Y018129D02*
X006047Y017649D01*
X005685Y017169D01*
X005685Y013809D01*
X002837Y011329D01*
X002837Y006209D01*
X004417Y004879D01*
X005002Y005794D02*
X005417Y005379D01*
X005417Y004129D01*
X006167Y003379D01*
X008917Y003379D01*
X010417Y004879D01*
X010627Y005089D01*
X009167Y007169D02*
X006447Y004449D01*
X006417Y004879D01*
X006083Y006629D02*
X005002Y006629D01*
X005002Y005794D01*
X004333Y006629D02*
X004333Y007244D01*
X004467Y007379D01*
X004417Y008629D02*
X007736Y008629D01*
X008565Y007800D01*
X009167Y007169D02*
X009167Y011329D01*
X008847Y011329D01*
X006767Y013409D01*
X006767Y014292D01*
X006648Y014412D01*
X007247Y013649D02*
X011967Y008929D01*
X012417Y008629D01*
X007407Y009579D02*
X007327Y009659D01*
X007327Y010129D01*
X007007Y010849D02*
X006767Y010849D01*
X006367Y010449D01*
X006367Y010209D01*
X005967Y011249D02*
X005167Y011249D01*
X005167Y011409D02*
X005167Y011809D01*
X005327Y011850D01*
X004687Y011249D02*
X003887Y011249D01*
X003887Y009703D02*
X003563Y009379D01*
X004272Y009379D02*
X004272Y008774D01*
X004417Y008629D01*
X004813Y009379D02*
X004917Y009483D01*
X004917Y010038D01*
X005522Y009379D02*
X005522Y009274D01*
X006367Y007379D02*
X006417Y007379D01*
X006667Y007129D01*
X006667Y006713D01*
X006752Y006629D01*
X003327Y014609D02*
X003887Y015169D01*
X003887Y015809D01*
X004010Y016077D01*
X003887Y016289D02*
X003327Y016289D01*
X003167Y016963D02*
X003167Y017861D01*
X003183Y017877D01*
X003167Y016963D02*
X003793Y016963D01*
X004010Y017180D01*
X003667Y019963D02*
X003667Y020529D01*
X002067Y022129D01*
X000967Y022129D01*
X001648Y017877D02*
X001648Y016148D01*
X001667Y016129D01*
X003807Y020129D02*
X004207Y020529D01*
X004207Y021249D01*
X004447Y021489D01*
D23*
X004667Y021719D01*
X004667Y020538D02*
X004687Y020369D01*
X004687Y020129D02*
X004667Y019983D01*
X004447Y019329D02*
X004667Y019274D01*
X004847Y019169D01*
X004447Y019329D02*
X003807Y019329D01*
X003667Y019294D01*
X003667Y019963D02*
X003807Y020129D01*
X005167Y018129D02*
X005187Y017649D01*
X005187Y016289D01*
X004447Y016289D01*
X004010Y016077D01*
X003887Y016289D01*
X003327Y016289D02*
X003167Y016294D01*
X003327Y014609D02*
X003167Y014463D01*
X003007Y013969D02*
X003167Y013794D01*
X003007Y013969D02*
X002207Y013969D01*
X001667Y014129D01*
X003667Y011219D02*
X003887Y011249D01*
X003667Y010038D02*
X003887Y009809D01*
X003887Y009703D01*
X003887Y009649D02*
X003887Y009809D01*
X004687Y011249D02*
X004917Y011219D01*
X005167Y011409D01*
X005167Y011249D02*
X004917Y011219D01*
X005522Y009274D02*
X005917Y008879D01*
X007667Y008879D01*
X008417Y009629D01*
X007327Y010129D02*
X007167Y010274D01*
X007007Y010849D02*
X007167Y010983D01*
X006367Y010209D02*
X006167Y010038D01*
X006167Y011219D02*
X005967Y011249D01*
X007247Y013649D02*
X007247Y014609D01*
X007167Y015129D01*
X006667Y019983D02*
X006687Y020129D01*
X006687Y020369D02*
X006667Y020538D01*
X005727Y020369D02*
X005667Y020538D01*
X005727Y020129D02*
X005667Y019983D01*
X005407Y021489D02*
X005667Y021719D01*
X008207Y021489D02*
X008207Y021409D01*
X011167Y023969D02*
X011567Y024369D01*
X011567Y024469D01*
X011659Y024562D01*
D24*
X001136Y003703D02*
X001451Y003467D01*
X009010Y003467D01*
X010627Y005085D01*
X010627Y005089D01*
X001667Y015129D02*
X001636Y015160D01*
X000978Y015160D01*
X000506Y014688D01*
X000506Y014176D01*
X000506Y013664D01*
X001136Y013034D01*
X001136Y003703D01*
X001667Y019129D02*
X001659Y019136D01*
X000781Y019136D01*
X000545Y019373D01*
X000545Y021656D01*
X000967Y022078D01*
X000967Y022129D01*
X002167Y023329D01*
X002167Y024879D01*
D25*
X005167Y021249D03*
X003183Y017877D03*
X001648Y017877D03*
X000506Y014176D03*
X005327Y011850D03*
X007247Y013649D03*
X007685Y016689D03*
X009487Y018689D03*
X009886Y017331D03*
X008417Y009629D03*
X008565Y007800D03*
X007407Y009579D03*
D26*
X011567Y023569D02*
X011567Y023682D01*
X011659Y023774D01*
D27*
X002697Y020279D02*
X002697Y014939D01*
X002127Y014369D01*
X001667Y014129D01*
X002697Y020279D02*
X002127Y020849D01*
X001667Y021129D01*
M02*
