G75*
G70*
%OFA0B0*%
%FSLAX24Y24*%
%IPPOS*%
%LPD*%
%AMOC8*
5,1,8,0,0,1.08239X$1,22.5*
%
%ADD10C,0.0000*%
%ADD11R,0.0300X0.0500*%
%ADD12C,0.0560*%
%ADD13R,0.0433X0.0394*%
%ADD14C,0.0560*%
%ADD15R,0.0551X0.0630*%
%ADD16R,0.0394X0.0433*%
%ADD17R,0.0137X0.0550*%
%ADD18C,0.0600*%
%ADD19C,0.1300*%
%ADD20C,0.0634*%
%ADD21C,0.1000*%
%ADD22C,0.0640*%
%ADD23R,0.0630X0.0551*%
%ADD24R,0.0472X0.0315*%
%ADD25C,0.0080*%
%ADD26C,0.0400*%
D10*
X000101Y000101D02*
X000101Y039471D01*
X063093Y039471D01*
X063093Y000101D01*
X000101Y000101D01*
D11*
X026101Y016719D03*
X026601Y016719D03*
X027101Y016719D03*
X027601Y016719D03*
X028101Y016719D03*
X028601Y016719D03*
X029101Y016719D03*
X029601Y016719D03*
X030101Y016719D03*
X030601Y016719D03*
X031101Y016719D03*
X031601Y016719D03*
X032101Y016719D03*
X032601Y016719D03*
X032601Y020483D03*
X032101Y020483D03*
X031601Y020483D03*
X031101Y020483D03*
X030601Y020483D03*
X030101Y020483D03*
X029601Y020483D03*
X029101Y020483D03*
X028601Y020483D03*
X028101Y020483D03*
X027601Y020483D03*
X027101Y020483D03*
X026601Y020483D03*
X026101Y020483D03*
D12*
X029651Y015101D03*
X031551Y015101D03*
D13*
X031266Y014101D03*
X031935Y014101D03*
X029935Y014101D03*
X029266Y014101D03*
X030266Y021601D03*
X030935Y021601D03*
X027935Y024601D03*
X027266Y024601D03*
X032266Y033601D03*
X032935Y033601D03*
D14*
X029101Y026381D02*
X029101Y025821D01*
X028101Y025821D02*
X028101Y026381D01*
X027101Y026381D02*
X027101Y025821D01*
X026101Y025821D02*
X026101Y026381D01*
X026101Y023381D02*
X026101Y022821D01*
X027101Y022821D02*
X027101Y023381D01*
X028101Y023381D02*
X028101Y022821D01*
X029101Y022821D02*
X029101Y023381D01*
D15*
X031550Y027101D03*
X032652Y027101D03*
D16*
X024101Y026766D03*
X024101Y027435D03*
X024101Y023935D03*
X024101Y023266D03*
X024101Y022435D03*
X024101Y021766D03*
X031101Y033266D03*
X031101Y033935D03*
X031101Y034766D03*
X031101Y035435D03*
X033101Y035435D03*
X033101Y034766D03*
D17*
X032996Y026040D03*
X032741Y026040D03*
X032485Y026040D03*
X032229Y026040D03*
X031973Y026040D03*
X031717Y026040D03*
X031461Y026040D03*
X031205Y026040D03*
X030949Y026040D03*
X030693Y026040D03*
X030437Y026040D03*
X033252Y026040D03*
X033508Y026040D03*
X033764Y026040D03*
X033764Y023161D03*
X033508Y023161D03*
X033252Y023161D03*
X032996Y023161D03*
X032741Y023161D03*
X032485Y023161D03*
X032229Y023161D03*
X031973Y023161D03*
X031717Y023161D03*
X031461Y023161D03*
X031205Y023161D03*
X030949Y023161D03*
X030693Y023161D03*
X030437Y023161D03*
D18*
X031609Y031821D03*
X032593Y031821D03*
X032593Y032601D03*
X031609Y032601D03*
D19*
X029731Y033671D03*
X034471Y033671D03*
D20*
X023418Y019101D02*
X022784Y019101D01*
X022784Y018101D02*
X023418Y018101D01*
X023418Y017101D02*
X022784Y017101D01*
X022784Y016101D02*
X023418Y016101D01*
X023418Y015101D02*
X022784Y015101D01*
D21*
X023243Y012101D03*
X026195Y012101D03*
X029148Y012101D03*
X032101Y012101D03*
X026554Y032101D03*
X023601Y032101D03*
D22*
X022921Y029101D02*
X022281Y029101D01*
X022281Y028101D02*
X022921Y028101D01*
X022921Y027101D02*
X022281Y027101D01*
X022281Y024101D02*
X022921Y024101D01*
X022921Y023101D02*
X022281Y023101D01*
X022281Y022101D02*
X022921Y022101D01*
X029281Y028101D02*
X029921Y028101D01*
X029921Y029101D02*
X029281Y029101D01*
D23*
X025101Y025152D03*
X025101Y024050D03*
D24*
X025601Y027246D03*
X025601Y027955D03*
X026601Y027955D03*
X027601Y027955D03*
X027601Y027246D03*
X026601Y027246D03*
X027101Y015955D03*
X026101Y015955D03*
X026101Y015246D03*
X027101Y015246D03*
X028101Y015246D03*
X028101Y015955D03*
D25*
X027941Y016101D01*
X027701Y016341D01*
X027701Y016501D01*
X027601Y016719D01*
X027101Y016719D02*
X027141Y016501D01*
X027141Y016101D01*
X027101Y015955D01*
X027621Y015621D02*
X027621Y015381D01*
X027941Y015381D01*
X028101Y015246D01*
X027101Y015246D02*
X026901Y015381D01*
X026581Y015381D01*
X026581Y015621D01*
X026261Y016101D02*
X026101Y015955D01*
X026261Y016101D02*
X026501Y016341D01*
X026501Y016501D01*
X026601Y016719D01*
X026101Y016719D02*
X026021Y016901D01*
X025861Y017061D01*
X025861Y017701D01*
X026261Y017381D02*
X026261Y020021D01*
X026501Y020261D01*
X026601Y020483D01*
X026101Y020483D02*
X026021Y020261D01*
X025541Y019781D01*
X025541Y017061D01*
X025621Y016261D02*
X025621Y015701D01*
X025941Y015381D01*
X026101Y015246D01*
X024421Y016261D02*
X024421Y022101D01*
X024261Y022261D01*
X024101Y022435D01*
X024101Y023266D01*
X024261Y023221D01*
X024821Y023781D01*
X025101Y024050D01*
X025381Y024261D01*
X025941Y024821D01*
X025941Y025621D01*
X026101Y026101D01*
X026261Y026581D01*
X026261Y026981D01*
X026421Y027141D01*
X026601Y027246D01*
X026821Y027221D01*
X026981Y027221D01*
X026981Y031381D01*
X026741Y031621D01*
X026554Y032101D01*
X024421Y030981D02*
X023781Y031621D01*
X023601Y032101D01*
X023381Y031621D01*
X021781Y030021D01*
X021781Y027781D01*
X022181Y027381D01*
X022601Y027101D01*
X023781Y027061D02*
X023781Y026501D01*
X023861Y026421D01*
X025861Y026421D01*
X026101Y026101D01*
X025941Y026581D01*
X025941Y026981D01*
X025781Y027141D01*
X025601Y027246D01*
X025601Y027955D02*
X025381Y028101D01*
X025061Y028101D01*
X024101Y027435D02*
X023941Y027221D01*
X023781Y027061D01*
X024101Y026766D02*
X024261Y026981D01*
X024421Y027141D01*
X024421Y030981D01*
X023061Y028821D02*
X022601Y029101D01*
X023061Y028821D02*
X023381Y028501D01*
X023381Y022661D01*
X023061Y022341D01*
X022601Y022101D01*
X023141Y021941D01*
X023941Y021941D01*
X024101Y021766D01*
X024581Y022501D02*
X024581Y013701D01*
X023461Y012581D01*
X023243Y012101D01*
X025221Y013381D02*
X026021Y012581D01*
X026195Y012101D01*
X025221Y013381D02*
X025221Y020181D01*
X026501Y021461D01*
X026501Y024981D01*
X027141Y024981D01*
X027861Y025701D01*
X028101Y026101D01*
X028501Y026581D02*
X028501Y025381D01*
X028101Y025381D01*
X027461Y024741D01*
X027266Y024601D01*
X027221Y024421D01*
X027221Y023621D01*
X027101Y023101D01*
X028101Y023101D02*
X028021Y023621D01*
X028021Y023781D01*
X028661Y023781D01*
X028661Y028341D01*
X029141Y028821D01*
X029601Y029101D01*
X030101Y028341D02*
X029601Y028101D01*
X030101Y027861D01*
X030101Y025861D01*
X031141Y024821D01*
X031141Y023381D01*
X031205Y023161D01*
X031461Y023161D02*
X031461Y022901D01*
X031461Y022581D01*
X031941Y022581D02*
X031141Y021781D01*
X030935Y021601D01*
X030741Y021461D01*
X030661Y021381D01*
X030661Y020661D01*
X030601Y020483D01*
X030501Y020261D01*
X029701Y019461D01*
X029701Y016901D01*
X029601Y016719D01*
X029701Y016501D01*
X030101Y016101D01*
X030101Y014261D01*
X029935Y014101D01*
X031266Y014101D01*
X031461Y013941D01*
X031941Y013461D01*
X031941Y012581D01*
X032101Y012101D01*
X031935Y014101D02*
X031781Y014261D01*
X031701Y014341D01*
X031701Y014901D01*
X031551Y015101D01*
X031381Y015301D01*
X031381Y015861D01*
X030741Y016501D01*
X030601Y016719D01*
X030101Y016719D02*
X030021Y016901D01*
X030021Y017301D01*
X029651Y015101D02*
X029461Y014901D01*
X029461Y014261D01*
X029266Y014101D01*
X024421Y016261D02*
X023541Y015381D01*
X023101Y015101D01*
X028101Y020483D02*
X028181Y020661D01*
X028261Y020741D01*
X028261Y021861D01*
X028981Y022581D01*
X029101Y023101D01*
X029541Y023541D02*
X029301Y023781D01*
X028661Y023781D01*
X028021Y023781D02*
X028021Y024421D01*
X027935Y024601D01*
X026901Y025701D02*
X027101Y026101D01*
X026901Y025701D02*
X026101Y024901D01*
X026101Y024021D01*
X024581Y022501D01*
X024101Y023935D02*
X023941Y024101D01*
X023701Y024341D01*
X023701Y024421D01*
X024101Y023935D02*
X024261Y024101D01*
X024821Y024661D01*
X024821Y024901D01*
X025101Y025152D01*
X026981Y027221D02*
X027381Y027221D01*
X027601Y027246D01*
X027781Y027301D01*
X028501Y026581D01*
X028181Y028101D02*
X027781Y028101D01*
X027601Y027955D01*
X026661Y028101D02*
X026601Y027955D01*
X026661Y028101D02*
X026661Y029061D01*
X030101Y028341D02*
X030421Y028661D01*
X030421Y032501D01*
X030741Y032821D01*
X030741Y035781D01*
X033381Y035781D01*
X033461Y035701D01*
X033461Y034981D01*
X033221Y034981D01*
X033101Y034766D01*
X033101Y035435D02*
X032981Y035461D01*
X032101Y035461D01*
X032101Y034181D01*
X032101Y033781D02*
X031221Y033781D01*
X031101Y033935D01*
X031141Y034101D01*
X031141Y034581D01*
X031101Y034766D01*
X031101Y035435D02*
X031221Y035461D01*
X032101Y035461D01*
X032101Y033781D02*
X032266Y033601D01*
X032101Y033461D01*
X031781Y033141D01*
X031781Y032821D01*
X031609Y032601D01*
X031461Y032341D01*
X031141Y032021D01*
X031141Y027541D01*
X031301Y027381D01*
X031550Y027101D01*
X031301Y026821D01*
X031221Y026741D01*
X031221Y026261D01*
X031205Y026040D01*
X031141Y026101D01*
X030981Y026101D01*
X030949Y026040D01*
X031781Y026821D02*
X031550Y027101D01*
X031781Y026821D02*
X032181Y026421D01*
X032181Y026261D01*
X032229Y026040D01*
X032261Y025781D01*
X032261Y025621D01*
X032021Y025381D01*
X032021Y023381D01*
X031973Y023161D01*
X031941Y022901D01*
X031941Y022581D01*
X030981Y022341D02*
X030501Y022821D01*
X030501Y022901D01*
X030437Y023161D01*
X029541Y023541D02*
X029541Y022341D01*
X030101Y021781D01*
X030266Y021601D01*
X030181Y021461D01*
X030181Y020661D01*
X030101Y020483D01*
X030981Y020661D02*
X030981Y021061D01*
X030981Y020661D02*
X031101Y020483D01*
X031461Y020661D02*
X031601Y020483D01*
X031461Y020661D02*
X031461Y021461D01*
X028581Y021061D02*
X028581Y020661D01*
X028601Y020483D01*
X032261Y025621D02*
X032901Y025621D01*
X032981Y025701D01*
X032981Y025781D01*
X032996Y026040D01*
X033252Y026040D02*
X033221Y026261D01*
X033221Y033381D01*
X033141Y033461D01*
X032935Y033601D01*
X031101Y033266D02*
X030981Y033061D01*
X030741Y032821D01*
X033861Y031221D02*
X033861Y026341D01*
X033781Y026261D01*
X033764Y026040D01*
X033508Y026040D02*
X033541Y026261D01*
X033541Y030661D01*
X031861Y027941D02*
X032421Y027381D01*
X032652Y027101D01*
X032501Y026821D01*
X032501Y026261D01*
X032485Y026040D01*
D26*
X031861Y027941D03*
X028181Y028101D03*
X026661Y029061D03*
X025061Y028101D03*
X023701Y024421D03*
X028581Y021061D03*
X030981Y021061D03*
X031461Y021461D03*
X030981Y022341D03*
X031461Y022581D03*
X025861Y017701D03*
X026261Y017381D03*
X025541Y017061D03*
X025621Y016261D03*
X026581Y015621D03*
X027621Y015621D03*
X030021Y017301D03*
X033541Y030661D03*
X033861Y031221D03*
X032101Y034181D03*
M02*
