G75*
G70*
%OFA0B0*%
%FSLAX24Y24*%
%IPPOS*%
%LPD*%
%AMOC8*
5,1,8,0,0,1.08239X$1,22.5*
%
%ADD10C,0.0060*%
%ADD11C,0.0080*%
D10*
X003999Y003642D02*
X004235Y003642D01*
X004235Y004115D02*
X003999Y004115D01*
X002687Y009167D02*
X002687Y012090D01*
X009637Y012090D01*
X009637Y009167D01*
X002687Y009167D01*
X009120Y015477D02*
X013214Y015477D01*
X013214Y017780D01*
X009120Y017780D01*
X009120Y015477D01*
X009057Y009389D02*
X009059Y009418D01*
X009065Y009446D01*
X009074Y009473D01*
X009088Y009498D01*
X009104Y009522D01*
X009124Y009542D01*
X009146Y009561D01*
X009170Y009575D01*
X009197Y009587D01*
X009224Y009595D01*
X009253Y009599D01*
X009281Y009599D01*
X009310Y009595D01*
X009337Y009587D01*
X009364Y009575D01*
X009388Y009561D01*
X009410Y009542D01*
X009430Y009522D01*
X009446Y009498D01*
X009460Y009473D01*
X009469Y009446D01*
X009475Y009418D01*
X009477Y009389D01*
X009475Y009360D01*
X009469Y009332D01*
X009460Y009305D01*
X009446Y009280D01*
X009430Y009256D01*
X009410Y009236D01*
X009388Y009217D01*
X009364Y009203D01*
X009337Y009191D01*
X009310Y009183D01*
X009281Y009179D01*
X009253Y009179D01*
X009224Y009183D01*
X009197Y009191D01*
X009170Y009203D01*
X009146Y009217D01*
X009124Y009236D01*
X009104Y009256D01*
X009088Y009280D01*
X009074Y009305D01*
X009065Y009332D01*
X009059Y009360D01*
X009057Y009389D01*
X012650Y015861D02*
X012652Y015887D01*
X012658Y015913D01*
X012667Y015938D01*
X012680Y015961D01*
X012696Y015982D01*
X012715Y016000D01*
X012737Y016016D01*
X012760Y016028D01*
X012785Y016036D01*
X012811Y016041D01*
X012838Y016042D01*
X012864Y016039D01*
X012889Y016032D01*
X012914Y016022D01*
X012936Y016008D01*
X012957Y015991D01*
X012974Y015972D01*
X012989Y015950D01*
X013000Y015926D01*
X013008Y015900D01*
X013012Y015874D01*
X013012Y015848D01*
X013008Y015822D01*
X013000Y015796D01*
X012989Y015772D01*
X012974Y015750D01*
X012957Y015731D01*
X012936Y015714D01*
X012914Y015700D01*
X012889Y015690D01*
X012864Y015683D01*
X012838Y015680D01*
X012811Y015681D01*
X012785Y015686D01*
X012760Y015694D01*
X012737Y015706D01*
X012715Y015722D01*
X012696Y015740D01*
X012680Y015761D01*
X012667Y015784D01*
X012658Y015809D01*
X012652Y015835D01*
X012650Y015861D01*
D11*
X012151Y018656D02*
X011561Y018656D01*
X011561Y019601D02*
X012151Y019601D01*
X012151Y018656D01*
X010774Y018656D02*
X010340Y018656D01*
X010183Y018814D01*
X010183Y019443D01*
X010340Y019601D01*
X010774Y019601D01*
M02*
