G75*
G70*
%OFA0B0*%
%FSLAX24Y24*%
%IPPOS*%
%LPD*%
%AMOC8*
5,1,8,0,0,1.08239X$1,22.5*
%
%ADD10R,0.0380X0.0580*%
%ADD11C,0.0640*%
%ADD12R,0.0513X0.0474*%
%ADD13C,0.0640*%
%ADD14R,0.0631X0.0710*%
%ADD15R,0.0474X0.0513*%
%ADD16R,0.0217X0.0630*%
%ADD17C,0.0680*%
%ADD18C,0.1380*%
%ADD19C,0.0714*%
%ADD20C,0.1080*%
%ADD21C,0.0720*%
%ADD22R,0.0710X0.0631*%
%ADD23R,0.0552X0.0395*%
D10*
X026101Y016719D03*
X026601Y016719D03*
X027101Y016719D03*
X027601Y016719D03*
X028101Y016719D03*
X028601Y016719D03*
X029101Y016719D03*
X029601Y016719D03*
X030101Y016719D03*
X030601Y016719D03*
X031101Y016719D03*
X031601Y016719D03*
X032101Y016719D03*
X032601Y016719D03*
X032601Y020483D03*
X032101Y020483D03*
X031601Y020483D03*
X031101Y020483D03*
X030601Y020483D03*
X030101Y020483D03*
X029601Y020483D03*
X029101Y020483D03*
X028601Y020483D03*
X028101Y020483D03*
X027601Y020483D03*
X027101Y020483D03*
X026601Y020483D03*
X026101Y020483D03*
D11*
X029651Y015101D03*
X031551Y015101D03*
D12*
X031266Y014101D03*
X031935Y014101D03*
X029935Y014101D03*
X029266Y014101D03*
X030266Y021601D03*
X030935Y021601D03*
X027935Y024601D03*
X027266Y024601D03*
X032266Y033601D03*
X032935Y033601D03*
D13*
X029101Y026381D02*
X029101Y025821D01*
X028101Y025821D02*
X028101Y026381D01*
X027101Y026381D02*
X027101Y025821D01*
X026101Y025821D02*
X026101Y026381D01*
X026101Y023381D02*
X026101Y022821D01*
X027101Y022821D02*
X027101Y023381D01*
X028101Y023381D02*
X028101Y022821D01*
X029101Y022821D02*
X029101Y023381D01*
D14*
X031550Y027101D03*
X032652Y027101D03*
D15*
X024101Y026766D03*
X024101Y027435D03*
X024101Y023935D03*
X024101Y023266D03*
X024101Y022435D03*
X024101Y021766D03*
X031101Y033266D03*
X031101Y033935D03*
X031101Y034766D03*
X031101Y035435D03*
X033101Y035435D03*
X033101Y034766D03*
D16*
X032996Y026040D03*
X032741Y026040D03*
X032485Y026040D03*
X032229Y026040D03*
X031973Y026040D03*
X031717Y026040D03*
X031461Y026040D03*
X031205Y026040D03*
X030949Y026040D03*
X030693Y026040D03*
X030437Y026040D03*
X033252Y026040D03*
X033508Y026040D03*
X033764Y026040D03*
X033764Y023161D03*
X033508Y023161D03*
X033252Y023161D03*
X032996Y023161D03*
X032741Y023161D03*
X032485Y023161D03*
X032229Y023161D03*
X031973Y023161D03*
X031717Y023161D03*
X031461Y023161D03*
X031205Y023161D03*
X030949Y023161D03*
X030693Y023161D03*
X030437Y023161D03*
D17*
X031609Y031821D03*
X032593Y031821D03*
X032593Y032601D03*
X031609Y032601D03*
D18*
X029731Y033671D03*
X034471Y033671D03*
D19*
X023418Y019101D02*
X022784Y019101D01*
X022784Y018101D02*
X023418Y018101D01*
X023418Y017101D02*
X022784Y017101D01*
X022784Y016101D02*
X023418Y016101D01*
X023418Y015101D02*
X022784Y015101D01*
D20*
X023243Y012101D03*
X026195Y012101D03*
X029148Y012101D03*
X032101Y012101D03*
X026554Y032101D03*
X023601Y032101D03*
D21*
X022921Y029101D02*
X022281Y029101D01*
X022281Y028101D02*
X022921Y028101D01*
X022921Y027101D02*
X022281Y027101D01*
X022281Y024101D02*
X022921Y024101D01*
X022921Y023101D02*
X022281Y023101D01*
X022281Y022101D02*
X022921Y022101D01*
X029281Y028101D02*
X029921Y028101D01*
X029921Y029101D02*
X029281Y029101D01*
D22*
X025101Y025152D03*
X025101Y024050D03*
D23*
X025601Y027246D03*
X025601Y027955D03*
X026601Y027955D03*
X027601Y027955D03*
X027601Y027246D03*
X026601Y027246D03*
X027101Y015955D03*
X026101Y015955D03*
X026101Y015246D03*
X027101Y015246D03*
X028101Y015246D03*
X028101Y015955D03*
M02*
