G75*
G70*
%OFA0B0*%
%FSLAX24Y24*%
%IPPOS*%
%LPD*%
%AMOC8*
5,1,8,0,0,1.08239X$1,22.5*
%
%ADD10C,0.0040*%
%ADD11C,0.0060*%
%ADD12C,0.0160*%
%ADD13C,0.0080*%
%ADD14C,0.0100*%
%ADD15C,0.0200*%
%ADD16R,0.0500X0.0750*%
%ADD17R,0.0300X0.0700*%
%ADD18R,0.0500X0.0300*%
D10*
X024621Y014947D02*
X024621Y015254D01*
X024697Y015331D01*
X024851Y015331D01*
X024928Y015254D01*
X024928Y015101D02*
X024774Y015101D01*
X024928Y015101D02*
X024928Y014947D01*
X024851Y014871D01*
X024697Y014871D01*
X024621Y014947D01*
X024621Y015871D02*
X024851Y015871D01*
X024928Y015947D01*
X024928Y016254D01*
X024851Y016331D01*
X024621Y016331D01*
X024621Y015871D01*
X024697Y016871D02*
X024621Y016947D01*
X024621Y017254D01*
X024697Y017331D01*
X024851Y017331D01*
X024928Y017254D01*
X024928Y016947D02*
X024851Y016871D01*
X024697Y016871D01*
X024621Y017871D02*
X024621Y018331D01*
X024774Y018178D01*
X024928Y018331D01*
X024928Y017871D01*
X024851Y018871D02*
X024697Y018871D01*
X024621Y018947D01*
X024621Y019101D02*
X024774Y019178D01*
X024851Y019178D01*
X024928Y019101D01*
X024928Y018947D01*
X024851Y018871D01*
X024621Y019101D02*
X024621Y019331D01*
X024928Y019331D01*
X025081Y019178D02*
X025235Y018871D01*
X025388Y019178D01*
D11*
X025881Y020063D02*
X025881Y017139D01*
X032831Y017139D01*
X032831Y020063D01*
X025881Y020063D01*
X023301Y021201D02*
X023201Y021101D01*
X022051Y021101D01*
X023301Y021201D02*
X023301Y025001D01*
X023201Y025101D01*
X022051Y025101D01*
X022051Y026101D02*
X023201Y026101D01*
X023301Y026201D01*
X023301Y030001D01*
X023201Y030101D01*
X022051Y030101D01*
X025365Y027719D02*
X025365Y027483D01*
X025837Y027483D02*
X025837Y027719D01*
X026365Y027719D02*
X026365Y027483D01*
X026837Y027483D02*
X026837Y027719D01*
X027365Y027719D02*
X027365Y027483D01*
X027837Y027483D02*
X027837Y027719D01*
X029101Y027851D02*
X029351Y027601D01*
X029851Y027601D01*
X030101Y027851D01*
X030101Y028351D01*
X029851Y028601D01*
X030101Y028851D01*
X030101Y029351D01*
X029851Y029601D01*
X029351Y029601D01*
X029101Y029351D01*
X029101Y028851D01*
X029351Y028601D01*
X029851Y028601D01*
X029351Y028601D02*
X029101Y028351D01*
X029101Y027851D01*
X030054Y025752D02*
X030054Y023449D01*
X034148Y023449D01*
X034148Y025752D01*
X030054Y025752D01*
X029601Y025701D02*
X025601Y025701D01*
X025601Y024851D01*
X025631Y024849D01*
X025661Y024844D01*
X025690Y024835D01*
X025717Y024822D01*
X025743Y024807D01*
X025767Y024788D01*
X025788Y024767D01*
X025807Y024743D01*
X025822Y024717D01*
X025835Y024690D01*
X025844Y024661D01*
X025849Y024631D01*
X025851Y024601D01*
X025849Y024571D01*
X025844Y024541D01*
X025835Y024512D01*
X025822Y024485D01*
X025807Y024459D01*
X025788Y024435D01*
X025767Y024414D01*
X025743Y024395D01*
X025717Y024380D01*
X025690Y024367D01*
X025661Y024358D01*
X025631Y024353D01*
X025601Y024351D01*
X025601Y023501D01*
X029601Y023501D01*
X029601Y025701D01*
X030256Y023833D02*
X030258Y023859D01*
X030264Y023885D01*
X030273Y023910D01*
X030286Y023933D01*
X030302Y023954D01*
X030321Y023972D01*
X030343Y023988D01*
X030366Y024000D01*
X030391Y024008D01*
X030417Y024013D01*
X030444Y024014D01*
X030470Y024011D01*
X030495Y024004D01*
X030520Y023994D01*
X030542Y023980D01*
X030563Y023963D01*
X030580Y023944D01*
X030595Y023922D01*
X030606Y023898D01*
X030614Y023872D01*
X030618Y023846D01*
X030618Y023820D01*
X030614Y023794D01*
X030606Y023768D01*
X030595Y023744D01*
X030580Y023722D01*
X030563Y023703D01*
X030542Y023686D01*
X030520Y023672D01*
X030495Y023662D01*
X030470Y023655D01*
X030444Y023652D01*
X030417Y023653D01*
X030391Y023658D01*
X030366Y023666D01*
X030343Y023678D01*
X030321Y023694D01*
X030302Y023712D01*
X030286Y023733D01*
X030273Y023756D01*
X030264Y023781D01*
X030258Y023807D01*
X030256Y023833D01*
X026041Y017361D02*
X026043Y017390D01*
X026049Y017418D01*
X026058Y017445D01*
X026072Y017470D01*
X026088Y017494D01*
X026108Y017514D01*
X026130Y017533D01*
X026154Y017547D01*
X026181Y017559D01*
X026208Y017567D01*
X026237Y017571D01*
X026265Y017571D01*
X026294Y017567D01*
X026321Y017559D01*
X026348Y017547D01*
X026372Y017533D01*
X026394Y017514D01*
X026414Y017494D01*
X026430Y017470D01*
X026444Y017445D01*
X026453Y017418D01*
X026459Y017390D01*
X026461Y017361D01*
X026459Y017332D01*
X026453Y017304D01*
X026444Y017277D01*
X026430Y017252D01*
X026414Y017228D01*
X026394Y017208D01*
X026372Y017189D01*
X026348Y017175D01*
X026321Y017163D01*
X026294Y017155D01*
X026265Y017151D01*
X026237Y017151D01*
X026208Y017155D01*
X026181Y017163D01*
X026154Y017175D01*
X026130Y017189D01*
X026108Y017208D01*
X026088Y017228D01*
X026072Y017252D01*
X026058Y017277D01*
X026049Y017304D01*
X026043Y017332D01*
X026041Y017361D01*
X025865Y015719D02*
X025865Y015483D01*
X026337Y015483D02*
X026337Y015719D01*
X026865Y015719D02*
X026865Y015483D01*
X027337Y015483D02*
X027337Y015719D01*
X027865Y015719D02*
X027865Y015483D01*
X028337Y015483D02*
X028337Y015719D01*
X029451Y015801D02*
X031751Y015801D01*
X031802Y015799D01*
X031853Y015794D01*
X031903Y015784D01*
X031953Y015771D01*
X032001Y015755D01*
X032048Y015735D01*
X032094Y015711D01*
X032137Y015685D01*
X032179Y015655D01*
X032218Y015622D01*
X032255Y015587D01*
X032289Y015549D01*
X032320Y015508D01*
X032349Y015466D01*
X032374Y015421D01*
X032395Y015375D01*
X032414Y015327D01*
X032428Y015278D01*
X032439Y015228D01*
X032447Y015178D01*
X032451Y015127D01*
X032451Y015075D01*
X032447Y015024D01*
X032439Y014974D01*
X032428Y014924D01*
X032414Y014875D01*
X032395Y014827D01*
X032374Y014781D01*
X032349Y014736D01*
X032320Y014694D01*
X032289Y014653D01*
X032255Y014615D01*
X032218Y014580D01*
X032179Y014547D01*
X032137Y014517D01*
X032094Y014491D01*
X032048Y014467D01*
X032001Y014447D01*
X031953Y014431D01*
X031903Y014418D01*
X031853Y014408D01*
X031802Y014403D01*
X031751Y014401D01*
X029451Y014401D01*
X029400Y014403D01*
X029349Y014408D01*
X029299Y014418D01*
X029249Y014431D01*
X029201Y014447D01*
X029154Y014467D01*
X029108Y014491D01*
X029065Y014517D01*
X029023Y014547D01*
X028984Y014580D01*
X028947Y014615D01*
X028913Y014653D01*
X028882Y014694D01*
X028853Y014736D01*
X028828Y014781D01*
X028807Y014827D01*
X028788Y014875D01*
X028774Y014924D01*
X028763Y014974D01*
X028755Y015024D01*
X028751Y015075D01*
X028751Y015127D01*
X028755Y015178D01*
X028763Y015228D01*
X028774Y015278D01*
X028788Y015327D01*
X028807Y015375D01*
X028828Y015421D01*
X028853Y015466D01*
X028882Y015508D01*
X028913Y015549D01*
X028947Y015587D01*
X028984Y015622D01*
X029023Y015655D01*
X029065Y015685D01*
X029108Y015711D01*
X029154Y015735D01*
X029201Y015755D01*
X029249Y015771D01*
X029299Y015784D01*
X029349Y015794D01*
X029400Y015799D01*
X029451Y015801D01*
X030101Y015101D02*
X030351Y015101D01*
X030351Y015451D01*
X030501Y015451D02*
X030701Y015451D01*
X030701Y014751D01*
X030501Y014751D01*
X030501Y015451D01*
X030851Y015451D02*
X030851Y015101D01*
X031101Y015101D01*
X030851Y015101D02*
X030851Y014751D01*
X030351Y014751D02*
X030351Y015101D01*
D12*
X029451Y016001D02*
X029392Y015999D01*
X029334Y015993D01*
X029275Y015984D01*
X029218Y015970D01*
X029162Y015953D01*
X029107Y015932D01*
X029053Y015908D01*
X029001Y015880D01*
X028951Y015849D01*
X028903Y015815D01*
X028858Y015778D01*
X028815Y015737D01*
X028774Y015694D01*
X028737Y015649D01*
X028703Y015601D01*
X028672Y015551D01*
X028644Y015499D01*
X028620Y015445D01*
X028599Y015390D01*
X028582Y015334D01*
X028568Y015277D01*
X028559Y015218D01*
X028553Y015160D01*
X028551Y015101D01*
X028553Y015042D01*
X028559Y014984D01*
X028568Y014925D01*
X028582Y014868D01*
X028599Y014812D01*
X028620Y014757D01*
X028644Y014703D01*
X028672Y014651D01*
X028703Y014601D01*
X028737Y014553D01*
X028774Y014508D01*
X028815Y014465D01*
X028858Y014424D01*
X028903Y014387D01*
X028951Y014353D01*
X029001Y014322D01*
X029053Y014294D01*
X029107Y014270D01*
X029162Y014249D01*
X029218Y014232D01*
X029275Y014218D01*
X029334Y014209D01*
X029392Y014203D01*
X029451Y014201D01*
X031751Y014201D01*
X031810Y014203D01*
X031868Y014209D01*
X031927Y014218D01*
X031984Y014232D01*
X032040Y014249D01*
X032095Y014270D01*
X032149Y014294D01*
X032201Y014322D01*
X032251Y014353D01*
X032299Y014387D01*
X032344Y014424D01*
X032387Y014465D01*
X032428Y014508D01*
X032465Y014553D01*
X032499Y014601D01*
X032530Y014651D01*
X032558Y014703D01*
X032582Y014757D01*
X032603Y014812D01*
X032620Y014868D01*
X032634Y014925D01*
X032643Y014984D01*
X032649Y015042D01*
X032651Y015101D01*
X032649Y015160D01*
X032643Y015218D01*
X032634Y015277D01*
X032620Y015334D01*
X032603Y015390D01*
X032582Y015445D01*
X032558Y015499D01*
X032530Y015551D01*
X032499Y015601D01*
X032465Y015649D01*
X032428Y015694D01*
X032387Y015737D01*
X032344Y015778D01*
X032299Y015815D01*
X032251Y015849D01*
X032201Y015880D01*
X032149Y015908D01*
X032095Y015932D01*
X032040Y015953D01*
X031984Y015970D01*
X031927Y015984D01*
X031868Y015993D01*
X031810Y015999D01*
X031751Y016001D01*
X029451Y016001D01*
D13*
X033479Y007376D02*
X021865Y007376D01*
X021865Y012888D01*
X033479Y012888D01*
X033479Y007376D01*
X025573Y023617D02*
X024628Y023617D01*
X024628Y024207D01*
X024628Y024994D02*
X024628Y025428D01*
X024786Y025585D01*
X025416Y025585D01*
X025573Y025428D01*
X025573Y024994D01*
X025573Y024207D02*
X025573Y023617D01*
X031117Y026628D02*
X031117Y027573D01*
X031707Y027573D01*
X032494Y027573D02*
X032928Y027573D01*
X033085Y027416D01*
X033085Y026786D01*
X032928Y026628D01*
X032494Y026628D01*
X031707Y026628D02*
X031117Y026628D01*
X029739Y031302D02*
X034463Y031302D01*
X034463Y032837D01*
X034463Y034491D02*
X034463Y035987D01*
X029739Y035987D02*
X029739Y034491D01*
X029739Y032837D02*
X029739Y031302D01*
X027931Y031313D02*
X022223Y031313D01*
X022223Y036825D01*
X027931Y036825D01*
X027931Y031313D01*
D14*
X024351Y019601D02*
X022601Y019601D01*
X022601Y014601D01*
X021851Y014601D01*
X021851Y019601D01*
X022601Y019601D01*
X024351Y019601D02*
X024351Y014601D01*
X022601Y014601D01*
D15*
X023061Y021281D03*
X023061Y026281D03*
D16*
X021851Y026376D03*
X021851Y024826D03*
X021851Y021376D03*
X021851Y029826D03*
D17*
X021751Y029101D03*
X021751Y028101D03*
X021751Y027101D03*
X021751Y024101D03*
X021751Y023101D03*
X021751Y022101D03*
D18*
X021851Y022601D03*
X021851Y023601D03*
X021851Y027601D03*
X021851Y028601D03*
M02*
