%
M48
M72
T01C0.0200
T02C0.0320
T03C0.0360
T04C0.0394
T05C0.0400
T06C0.0472
T07C0.0900
%
T01
X25621Y16261
X25541Y17061
X25861Y17701
X26261Y17381
X26581Y15621
X27621Y15621
X30021Y17301
X30981Y21061
X31461Y21461
X30981Y22341
X31461Y22581
X28581Y21061
X23701Y24421
X25061Y28101
X26661Y29061
X28181Y28101
X31861Y27941
X33541Y30661
X33861Y31221
X32101Y34181
T02
X29101Y26101
X28101Y26101
X27101Y26101
X26101Y26101
X26101Y23101
X27101Y23101
X28101Y23101
X29101Y23101
X29651Y15101
X31551Y15101
T03
X31609Y31821
X32593Y31821
X32593Y32601
X31609Y32601
T04
X23101Y19101
X23101Y18101
X23101Y17101
X23101Y16101
X23101Y15101
T05
X22601Y22101
X22601Y23101
X22601Y24101
X22601Y27101
X22601Y28101
X22601Y29101
X29601Y29101
X29601Y28101
T06
X23243Y12101
X26195Y12101
X29148Y12101
X32101Y12101
X26554Y32101
X23601Y32101
T07
X29731Y33671
X34471Y33671
M30
