%
M48
M72
T01C0.0276
T02C0.0354
T03C0.0394
T04C0.0433
T05C0.0512
T06C0.1260
%
T01
X5327Y11850
X7247Y13649
X7685Y16689
X9487Y18689
X9886Y17331
X8417Y9629
X8565Y7800
X7407Y9579
X3183Y17877
X1648Y17877
X506Y14176
X5167Y21249
T02
X5167Y18129
X6167Y18129
X7167Y18129
X8167Y18129
X8167Y15129
X7167Y15129
X6167Y15129
X5167Y15129
X4467Y7379
X6367Y7379
X10675Y23774
X10675Y24562
X11659Y24562
X11659Y23774
T03
X12417Y12629
X12417Y11629
X12417Y10629
X12417Y9629
X12417Y8629
X1667Y14129
X1667Y15129
X1667Y16129
X1667Y19129
X1667Y20129
X1667Y21129
T04
X2217Y4129
X2217Y5129
X8667Y20129
X8667Y21129
T05
X4167Y24879
X2167Y24879
X4417Y4879
X6417Y4879
X8417Y4879
X10417Y4879
T06
X8797Y25629
X13537Y25629
M30
