G75*
G70*
%OFA0B0*%
%FSLAX24Y24*%
%IPPOS*%
%LPD*%
%AMOC8*
5,1,8,0,0,1.08239X$1,22.5*
%
%ADD10R,0.0360X0.0560*%
%ADD11C,0.0665*%
%ADD12C,0.0665*%
%ADD13R,0.0661X0.0740*%
%ADD14R,0.0472X0.0512*%
%ADD15R,0.0164X0.0577*%
%ADD16R,0.0512X0.0472*%
%ADD17C,0.0712*%
%ADD18C,0.1200*%
%ADD19C,0.0780*%
%ADD20R,0.0378X0.0535*%
%ADD21C,0.1992*%
%ADD22C,0.0523*%
D10*
X002917Y008747D03*
X003417Y008747D03*
X003917Y008747D03*
X004417Y008747D03*
X004917Y008747D03*
X005417Y008747D03*
X005917Y008747D03*
X006417Y008747D03*
X006917Y008747D03*
X007417Y008747D03*
X007917Y008747D03*
X008417Y008747D03*
X008917Y008747D03*
X009417Y008747D03*
X009417Y012510D03*
X008917Y012510D03*
X008417Y012510D03*
X007917Y012510D03*
X007417Y012510D03*
X006917Y012510D03*
X006417Y012510D03*
X005917Y012510D03*
X005417Y012510D03*
X004917Y012510D03*
X004417Y012510D03*
X003917Y012510D03*
X003417Y012510D03*
X002917Y012510D03*
D11*
X004467Y007379D03*
X006367Y007379D03*
X010675Y023774D03*
X010675Y024562D03*
X011659Y024562D03*
X011659Y023774D03*
D12*
X008167Y018406D02*
X008167Y017851D01*
X007167Y017851D02*
X007167Y018406D01*
X006167Y018406D02*
X006167Y017851D01*
X005167Y017851D02*
X005167Y018406D01*
X005167Y015406D02*
X005167Y014851D01*
X006167Y014851D02*
X006167Y015406D01*
X007167Y015406D02*
X007167Y014851D01*
X008167Y014851D02*
X008167Y015406D01*
D13*
X010616Y019129D03*
X011718Y019129D03*
D14*
X009917Y023794D03*
X009917Y024463D03*
X009167Y024463D03*
X009167Y023794D03*
X008167Y023544D03*
X008167Y024213D03*
D15*
X009504Y018068D03*
X009760Y018068D03*
X010016Y018068D03*
X010272Y018068D03*
X010527Y018068D03*
X010783Y018068D03*
X011039Y018068D03*
X011295Y018068D03*
X011551Y018068D03*
X011807Y018068D03*
X012063Y018068D03*
X012319Y018068D03*
X012575Y018068D03*
X012831Y018068D03*
X012831Y015189D03*
X012575Y015189D03*
X012319Y015189D03*
X012063Y015189D03*
X011807Y015189D03*
X011551Y015189D03*
X011295Y015189D03*
X011039Y015189D03*
X010783Y015189D03*
X010527Y015189D03*
X010272Y015189D03*
X010016Y015189D03*
X009760Y015189D03*
X009504Y015189D03*
D16*
X007002Y016629D03*
X006333Y016629D03*
X005502Y013379D03*
X004833Y013379D03*
X009333Y022629D03*
X010002Y022629D03*
D17*
X012120Y012629D02*
X012714Y012629D01*
X012714Y011629D02*
X012120Y011629D01*
X012120Y010629D02*
X012714Y010629D01*
X012714Y009629D02*
X012120Y009629D01*
X012120Y008629D02*
X012714Y008629D01*
X001964Y014129D02*
X001370Y014129D01*
X001370Y015129D02*
X001964Y015129D01*
X001964Y016129D02*
X001370Y016129D01*
X001370Y019129D02*
X001964Y019129D01*
X001964Y020129D02*
X001370Y020129D01*
X001370Y021129D02*
X001964Y021129D01*
D18*
X002167Y024879D03*
X004167Y024879D03*
X004417Y004879D03*
X006417Y004879D03*
X008417Y004879D03*
X010417Y004879D03*
D19*
X002542Y004129D02*
X001892Y004129D01*
X001892Y005129D02*
X002542Y005129D01*
X008342Y020129D02*
X008992Y020129D01*
X008992Y021129D02*
X008342Y021129D01*
D20*
X004472Y003879D03*
X003763Y003879D03*
D21*
X008797Y025629D03*
X013537Y025629D03*
D22*
X009487Y018689D03*
X009886Y017331D03*
X007685Y016689D03*
X007247Y013649D03*
X005327Y011850D03*
X007407Y009579D03*
X008417Y009629D03*
X008565Y007800D03*
X003183Y017877D03*
X001648Y017877D03*
X000506Y014176D03*
X005167Y021249D03*
M02*
