G75*
G70*
%OFA0B0*%
%FSLAX24Y24*%
%IPPOS*%
%LPD*%
%AMOC8*
5,1,8,0,0,1.08239X$1,22.5*
%
%ADD10C,0.0665*%
%ADD11R,0.0512X0.0472*%
%ADD12C,0.0665*%
%ADD13C,0.0712*%
%ADD14C,0.1200*%
%ADD15R,0.0472X0.0512*%
%ADD16R,0.0740X0.0661*%
%ADD17R,0.0535X0.0378*%
%ADD18R,0.0646X0.0567*%
%ADD19C,0.0780*%
%ADD20R,0.0378X0.0535*%
%ADD21C,0.1992*%
%ADD22C,0.0523*%
D10*
X004467Y007379D03*
X006367Y007379D03*
X010675Y023774D03*
X010675Y024562D03*
X011659Y024562D03*
X011659Y023774D03*
D11*
X006752Y006629D03*
X006083Y006629D03*
X005002Y006629D03*
X004333Y006629D03*
D12*
X005167Y014851D02*
X005167Y015406D01*
X006167Y015406D02*
X006167Y014851D01*
X007167Y014851D02*
X007167Y015406D01*
X008167Y015406D02*
X008167Y014851D01*
X008167Y017851D02*
X008167Y018406D01*
X007167Y018406D02*
X007167Y017851D01*
X006167Y017851D02*
X006167Y018406D01*
X005167Y018406D02*
X005167Y017851D01*
D13*
X001964Y019129D02*
X001370Y019129D01*
X001370Y020129D02*
X001964Y020129D01*
X001964Y021129D02*
X001370Y021129D01*
X001370Y016129D02*
X001964Y016129D01*
X001964Y015129D02*
X001370Y015129D01*
X001370Y014129D02*
X001964Y014129D01*
X012120Y012629D02*
X012714Y012629D01*
X012714Y011629D02*
X012120Y011629D01*
X012120Y010629D02*
X012714Y010629D01*
X012714Y009629D02*
X012120Y009629D01*
X012120Y008629D02*
X012714Y008629D01*
D14*
X010417Y004879D03*
X008417Y004879D03*
X006417Y004879D03*
X004417Y004879D03*
X004167Y024879D03*
X002167Y024879D03*
D15*
X003667Y019963D03*
X003667Y019294D03*
X003167Y016963D03*
X003167Y016294D03*
X003167Y014463D03*
X003167Y013794D03*
D16*
X004010Y016077D03*
X004010Y017180D03*
D17*
X004667Y019274D03*
X004667Y019983D03*
X005667Y019983D03*
X005667Y019274D03*
X006667Y019274D03*
X006667Y019983D03*
X007167Y010983D03*
X007167Y010274D03*
D18*
X006167Y010038D03*
X006167Y011219D03*
X004917Y011219D03*
X004917Y010038D03*
X003667Y010038D03*
X003667Y011219D03*
X004667Y020538D03*
X004667Y021719D03*
X005667Y021719D03*
X005667Y020538D03*
X006667Y020538D03*
X006667Y021719D03*
D19*
X002542Y004129D02*
X001892Y004129D01*
X001892Y005129D02*
X002542Y005129D01*
X008342Y020129D02*
X008992Y020129D01*
X008992Y021129D02*
X008342Y021129D01*
D20*
X005522Y009379D03*
X004813Y009379D03*
X004272Y009379D03*
X003563Y009379D03*
D21*
X008797Y025629D03*
X013537Y025629D03*
D22*
X009487Y018689D03*
X009886Y017331D03*
X007685Y016689D03*
X007247Y013649D03*
X005327Y011850D03*
X007407Y009579D03*
X008417Y009629D03*
X008565Y007800D03*
X003183Y017877D03*
X001648Y017877D03*
X000506Y014176D03*
X005167Y021249D03*
M02*
